<svg xmlns="http://www.w3.org/2000/svg" viewBox="0 0 100 100"><circle cx="52" cy="52" r="44" opacity=".35"/><circle cx="50" cy="50" r="44" fill="#f2f2f2"/><circle cx="50" cy="50" r="37.5" fill="#9aa2e6"/><path fill="#40396e" d="M50,89c-21.505,0-39-17.495-39-39s17.495-39,39-39s39,17.495,39,39S71.505,89,50,89z M50,14 c-19.851,0-36,16.149-36,36s16.149,36,36,36s36-16.149,36-36S69.851,14,50,14z"/><path fill="#d9eeff" d="M67.973,40.016c-0.277,0.832-0.885,1.515-1.675,1.877l-9.909,4.619v5.333 c0,0.373,0.064,0.736,0.192,1.088l6.016,16.8c0.299,0.811,0.245,1.696-0.149,2.496c-0.395,0.789-1.088,1.376-1.941,1.643 c-1.579,0.469-3.403-0.523-3.989-2.165l-4.885-13.589c-0.235-0.693-0.864-1.131-1.632-1.141c-0.757,0-1.419,0.448-1.653,1.109 l-4.939,13.781c-0.309,0.853-0.907,1.493-1.749,1.867C41.264,73.904,40.827,74,40.379,74c-0.416,0-0.843-0.085-1.227-0.245 c-1.515-0.64-2.304-2.56-1.717-4.203l5.963-16.619c0.128-0.352,0.192-0.715,0.192-1.088v-5.536l-9.888-4.619 c-0.8-0.363-1.397-1.035-1.675-1.877c-0.288-0.853-0.213-1.749,0.213-2.528c0.523-1.003,1.621-1.632,2.859-1.632 c0.523,0,1.035,0.117,1.483,0.331l7.648,3.563c0.427,0.213,0.896,0.32,1.387,0.32h9.173c0.491,0,0.949-0.107,1.344-0.299 l7.296-3.392c1.557-0.747,3.552-0.149,4.331,1.312C68.187,38.267,68.261,39.163,67.973,40.016z"/><path fill="#d9eeff" d="M49.989,26c-2.946,0-5.333,2.388-5.333,5.333s2.388,5.333,5.333,5.333 c2.946,0,5.333-2.388,5.333-5.333S52.935,26,49.989,26z"/></svg>
