<svg xmlns="http://www.w3.org/2000/svg" viewBox="0 0 100 100"><path d="M87.5,17h-50c-1.293,0-2.496,0.384-3.509,1.037C32.838,16.216,30.81,15,28.5,15h-13C11.916,15,9,17.916,9,21.5v13 c0,2.317,1.222,4.349,3.052,5.5C10.222,41.151,9,43.183,9,45.5v13c0,2.317,1.222,4.349,3.052,5.5C10.222,65.151,9,67.183,9,69.5 v13c0,3.584,2.916,6.5,6.5,6.5h13c2.31,0,4.338-1.216,5.491-3.037C35.004,86.616,36.207,87,37.5,87h50c3.584,0,6.5-2.916,6.5-6.5 v-57C94,19.916,91.084,17,87.5,17z" opacity=".35"/><path fill="#f2f2f2" d="M85.5,15h-50c-1.293,0-2.496,0.384-3.509,1.037C30.838,14.216,28.81,13,26.5,13h-13 C9.916,13,7,15.916,7,19.5v13c0,2.317,1.222,4.349,3.052,5.5C8.222,39.151,7,41.183,7,43.5v13c0,2.317,1.222,4.349,3.052,5.5 C8.222,63.151,7,65.183,7,67.5v13c0,3.584,2.916,6.5,6.5,6.5h13c2.31,0,4.338-1.216,5.491-3.037C33.004,84.616,34.207,85,35.5,85 h50c3.584,0,6.5-2.916,6.5-6.5v-57C92,17.916,89.084,15,85.5,15z"/><path fill="#70bfff" d="M85.5,30.5h-50v-9h50V30.5z"/><path fill="#40396e" d="M85.5,32h-50c-0.828,0-1.5-0.671-1.5-1.5v-9c0-0.829,0.672-1.5,1.5-1.5h50 c0.828,0,1.5,0.671,1.5,1.5v9C87,31.329,86.328,32,85.5,32z M37,29h47v-6H37V29z"/><path fill="#70bfff" d="M26.5,32.5h-13v-13h13V32.5z"/><path fill="#40396e" d="M26.5,34h-13c-0.828,0-1.5-0.671-1.5-1.5v-13c0-0.829,0.672-1.5,1.5-1.5h13 c0.828,0,1.5,0.671,1.5,1.5v13C28,33.329,27.328,34,26.5,34z M15,31h10V21H15V31z"/><path fill="#70bfff" d="M85.5,54.5h-50v-9h50V54.5z"/><path fill="#40396e" d="M85.5,56h-50c-0.828,0-1.5-0.671-1.5-1.5v-9c0-0.829,0.672-1.5,1.5-1.5h50 c0.828,0,1.5,0.671,1.5,1.5v9C87,55.329,86.328,56,85.5,56z M37,53h47v-6H37V53z"/><path fill="#70bfff" d="M26.5,56.5h-13v-13h13V56.5z"/><path fill="#40396e" d="M26.5,58h-13c-0.828,0-1.5-0.671-1.5-1.5v-13c0-0.829,0.672-1.5,1.5-1.5h13 c0.828,0,1.5,0.671,1.5,1.5v13C28,57.329,27.328,58,26.5,58z M15,55h10V45H15V55z"/><g><path fill="#70bfff" d="M85.5,78.5h-50v-9h50V78.5z"/><path fill="#40396e" d="M85.5,80h-50c-0.828,0-1.5-0.671-1.5-1.5v-9c0-0.829,0.672-1.5,1.5-1.5h50 c0.828,0,1.5,0.671,1.5,1.5v9C87,79.329,86.328,80,85.5,80z M37,77h47v-6H37V77z"/></g><g><path fill="#70bfff" d="M26.5,80.5h-13v-13h13V80.5z"/><path fill="#40396e" d="M26.5,82h-13c-0.828,0-1.5-0.671-1.5-1.5v-13c0-0.829,0.672-1.5,1.5-1.5h13 c0.828,0,1.5,0.671,1.5,1.5v13C28,81.329,27.328,82,26.5,82z M15,79h10V69H15V79z"/></g><g><path fill="#2b59a1" d="M23,29h-6v-6h6V29z"/></g><g><path fill="#2b59a1" d="M23,53h-6v-6h6V53z"/></g></svg>
