<svg xmlns="http://www.w3.org/2000/svg" viewBox="0 0 100 100"><path d="M15.5,85C11.916,85,9,82.084,9,78.5v-53c0-3.584,2.916-6.5,6.5-6.5h73c3.584,0,6.5,2.916,6.5,6.5v53c0,3.584-2.916,6.5-6.5,6.5H15.5z" opacity=".35"/><path fill="#f2f2f2" d="M13.5,83C9.916,83,7,80.084,7,76.5v-53c0-3.584,2.916-6.5,6.5-6.5h73c3.584,0,6.5,2.916,6.5,6.5v53c0,3.584-2.916,6.5-6.5,6.5H13.5z"/><rect width="72" height="54" x="14" y="23" fill="#707cc0"/><polygon fill="#40396e" points="85.128,25.245 50,54.209 14.972,25.311 50,28.931" opacity=".35"/><polygon fill="#9aa2e6" points="13,24 50,48.606 87,24"/><path fill="#40396e" d="M86.5,78h-73c-0.828,0-1.5-0.671-1.5-1.5v-53c0-0.829,0.672-1.5,1.5-1.5h73c0.828,0,1.5,0.671,1.5,1.5v53C88,77.329,87.328,78,86.5,78z M15,75h70V25H15V75z"/></svg>
