<svg xmlns="http://www.w3.org/2000/svg" viewBox="0 0 100 100"><path d="M52,85C21.228,85,6.764,55.074,6.621,54.772c-0.832-1.761-0.832-3.784,0.001-5.548 C6.764,48.925,21.228,19,52,19s45.236,29.925,45.379,30.228c0.832,1.761,0.832,3.784-0.001,5.548C97.236,55.074,82.772,85,52,85z" opacity=".35"/><path fill="#f2f2f2" d="M50,83C19.228,83,4.764,53.074,4.621,52.772c-0.832-1.761-0.832-3.784,0.001-5.548 C4.764,46.925,19.228,17,50,17s45.236,29.925,45.379,30.228c0.832,1.761,0.832,3.784-0.001,5.548C95.236,53.074,80.772,83,50,83z"/><path fill="#d9eeff" d="M89.5,50c0,0-12.5,26.5-39.5,26.5S10.5,50,10.5,50S23,23.5,50,23.5S89.5,50,89.5,50z"/><path fill="#40396e" d="M50,78C22.369,78,9.272,50.914,9.144,50.64c-0.191-0.405-0.191-0.875,0-1.28 C9.272,49.086,22.369,22,50,22s40.728,27.086,40.856,27.36c0.191,0.405,0.191,0.875,0,1.28C90.728,50.914,77.631,78,50,78z M12.186,50C14.299,53.972,26.604,75,50,75s35.701-21.028,37.814-25C85.701,46.028,73.396,25,50,25S14.299,46.028,12.186,50z"/><circle cx="50" cy="50" r="18" fill="#70bfff"/><circle cx="50" cy="50" r="10" fill="#40396e"/><circle cx="56" cy="45" r="4" fill="#f2f2f2"/></svg>
