<svg xmlns="http://www.w3.org/2000/svg" viewBox="0 0 100 100"><path d="M95.132,53.124c-0.22-2.38-2.599-23.56-18.053-34.232c-1.091-0.752-2.366-1.149-3.689-1.149 c-0.067,0-0.131,0.01-0.198,0.012c-0.566-1.497-4.255-0.375-5.681-1.116c-5.974-3.11-10.05-7.033-17.269-7.033 c-5.139,0-10.028,0.989-14.534,2.939c-1.197,0.518-2.188,1.363-2.879,2.436c-1.267,0.036-2.486,0.425-3.535,1.157 C22.52,20.869,18.18,27.19,15.584,30.97c-0.546,0.794-1.354,1.97-1.711,2.393c-1.237,1.057-2.024,2.517-2.225,4.143 c-0.213,1.723,0.259,3.426,1.328,4.796c0.583,0.747,1.308,1.337,2.118,1.76c-0.851,0.829-1.445,1.123-1.868,1.268 c-3.386,1.165-5.195,4.868-4.033,8.26c0.256,0.745,0.65,1.411,1.131,1.997c-0.707,0.938-1.168,2.079-1.284,3.337 c-0.229,2.512,1.015,4.822,3.018,6.086c-0.334,0.782-0.52,1.642-0.52,2.544c0,3.104,2.189,5.703,5.103,6.345 c-0.146,0.541-0.232,1.107-0.232,1.693c0,3.584,2.916,6.5,6.5,6.5c1.017,0,2.022-0.079,3.018-0.202 c-0.352,1.391-0.24,2.849,0.343,4.182c1.034,2.368,3.372,3.898,5.957,3.898c0.905,0,1.785-0.185,2.602-0.544 c0.604-0.264,1.187-0.558,1.771-0.85c0.136,1.045,0.528,2.047,1.158,2.929c1.218,1.705,3.195,2.723,5.29,2.723 c1.362,0,2.669-0.419,3.775-1.21c1.206-0.861,2.338-1.804,3.403-2.809c0.403,1.062,1.081,2.033,2.033,2.785 c1.143,0.903,2.574,1.401,4.03,1.401c2.002,0,3.861-0.901,5.097-2.467c0.154-0.195,1.454-1.866,3.124-4.704 c0.673,0.73,1.491,1.318,2.446,1.68c0.74,0.281,1.517,0.424,2.308,0.424c2.682,0,5.123-1.684,6.082-4.207 c0.193-0.509,1.04-2.806,2.026-6.185c0.026,0.009,0.05,0.021,0.076,0.029c0.647,0.209,1.32,0.314,1.999,0.314 c2.824,0,5.309-1.805,6.183-4.494c1.165-3.591,2.058-8.801,2.149-14.627c0.287,0.038,0.579,0.065,0.877,0.065 c0.186,0,0.368-0.009,0.6-0.028C92.822,59.864,95.458,56.696,95.132,53.124z" opacity=".35"/><path fill="#f2f2f2" d="M93.132,51.124c-0.22-2.38-2.599-23.56-18.053-34.232c-1.091-0.752-2.366-1.149-3.689-1.149 c-0.067,0-0.131,0.01-0.198,0.012c-0.566-1.497-1.642-2.721-3.068-3.461c-5.974-3.11-12.663-4.688-19.883-4.688 c-5.139,0-10.028,0.989-14.534,2.939c-1.197,0.518-2.188,1.363-2.879,2.436c-1.267,0.036-2.486,0.425-3.535,1.157 C20.52,18.869,16.18,25.19,13.584,28.97c-0.546,0.794-1.354,1.97-1.711,2.393c-1.237,1.057-2.024,2.517-2.225,4.143 c-0.213,1.723,0.259,3.426,1.328,4.796c0.583,0.747,1.308,1.337,2.118,1.76c-0.851,0.829-1.445,1.123-1.868,1.268 c-3.386,1.165-5.195,4.868-4.033,8.26C7.45,52.334,7.844,53,8.324,53.585c-0.707,0.938-1.168,2.079-1.284,3.337 c-0.229,2.512,1.015,4.822,3.018,6.086c-0.334,0.782-0.52,1.642-0.52,2.544c0,3.104,2.189,5.703,5.103,6.345 c-0.146,0.541-0.232,1.107-0.232,1.693c0,3.584,2.916,6.5,6.5,6.5c1.017,0,2.022-0.079,3.018-0.202 c-0.352,1.391-0.24,2.849,0.343,4.182c1.034,2.368,3.372,3.898,5.957,3.898c0.905,0,1.785-0.185,2.602-0.544 c0.604-0.264,1.187-0.558,1.771-0.85c0.136,1.045,0.528,2.047,1.158,2.929c1.218,1.705,3.195,2.723,5.29,2.723 c1.362,0,2.669-0.419,3.775-1.21c1.206-0.861,2.338-1.804,3.403-2.809c0.403,1.062,1.081,2.033,2.033,2.785 c1.143,0.903,2.574,1.401,4.03,1.401c2.002,0,3.861-0.901,5.097-2.467c0.154-0.195,1.454-1.866,3.124-4.704 c0.673,0.73,1.491,1.318,2.446,1.68c0.74,0.281,1.517,0.424,2.308,0.424c2.682,0,5.123-1.684,6.082-4.207 c0.193-0.509,1.04-2.806,2.026-6.185c0.026,0.009,0.05,0.021,0.076,0.029c0.647,0.209,1.32,0.314,1.999,0.314 c2.824,0,5.309-1.805,6.183-4.494c1.165-3.591,2.058-8.801,2.149-14.627c0.287,0.038,0.579,0.065,0.877,0.065 c0.186,0,0.368-0.009,0.6-0.028C90.822,57.864,93.458,54.696,93.132,51.124z"/><path fill="#40396e" d="M16.101,37.801c0.322,0,0.647-0.104,0.922-0.317c0.902-0.704,1.849-2.081,3.158-3.988 c2.436-3.545,6.115-8.902,11.694-12.8c0.679-0.475,0.845-1.409,0.37-2.089c-0.474-0.679-1.41-0.843-2.089-0.37 c-6.024,4.209-9.891,9.836-12.448,13.561c-1.025,1.492-1.994,2.902-2.531,3.321c-0.653,0.51-0.77,1.452-0.26,2.105 C15.213,37.603,15.654,37.801,16.101,37.801z"/><path fill="#40396e" d="M53.882,44.323c-0.684-0.464-1.618-0.287-2.084,0.398c-0.465,0.686-0.287,1.618,0.398,2.084 c1.666,1.131,2.584,3.866,2.584,7.702c0,5.227-3.461,22.044-14.604,29.999c-0.675,0.481-0.831,1.418-0.35,2.092 c0.293,0.41,0.754,0.629,1.222,0.629c0.302,0,0.606-0.091,0.87-0.279C54.021,78.31,57.78,60.146,57.78,54.508 C57.78,49.577,56.433,46.056,53.882,44.323z"/><path fill="#40396e" d="M41.122,61.331c0.902-1.738,1.591-3.891,2.257-5.972c1.186-3.707,2.412-7.54,4.689-8.775 c0.729-0.395,0.999-1.305,0.604-2.033c-0.396-0.729-1.306-0.997-2.033-0.604c-3.338,1.809-4.751,6.227-6.117,10.498 c-0.656,2.053-1.276,3.99-2.062,5.503c-1.479,2.849-7.115,12.144-17.551,12.144c-0.828,0-1.5,0.672-1.5,1.5s0.672,1.5,1.5,1.5 C29.093,75.092,36.649,69.947,41.122,61.331z"/><path fill="#40396e" d="M44.951,70.868c0.456-0.691,0.266-1.622-0.426-2.078c-0.692-0.456-1.622-0.267-2.078,0.426 c-3.246,4.919-7.56,8.58-12.821,10.88c-0.759,0.331-1.105,1.216-0.773,1.975c0.246,0.563,0.797,0.899,1.375,0.899 c0.2,0,0.404-0.04,0.6-0.126C36.629,80.309,41.381,76.279,44.951,70.868z"/><path fill="#40396e" d="M72.24,21.008c-0.683-0.471-1.615-0.299-2.087,0.382c-0.471,0.682-0.3,1.616,0.382,2.087 c12.667,8.747,14.612,28.188,14.631,28.383c0.072,0.778,0.726,1.362,1.491,1.362c0.047,0,0.093-0.003,0.14-0.007 c0.825-0.076,1.432-0.806,1.356-1.63C88.074,50.73,86.073,30.561,72.24,21.008z"/><path fill="#40396e" d="M36.884,17.888c3.498-1.515,7.319-2.282,11.357-2.282c5.921,0,11.367,1.272,16.188,3.782 c0.221,0.115,0.458,0.17,0.691,0.17c0.541,0,1.064-0.294,1.331-0.808c0.383-0.734,0.098-1.641-0.638-2.022 c-5.253-2.735-11.165-4.122-17.573-4.122c-4.451,0-8.673,0.851-12.549,2.528c-0.761,0.329-1.11,1.213-0.781,1.973 S36.121,18.218,36.884,17.888z"/><path fill="#40396e" d="M48.353,52.589c-0.004,0.054-0.404,5.417-3.139,11.559c-0.337,0.757,0.003,1.644,0.76,1.98 c0.198,0.089,0.405,0.13,0.609,0.13c0.574,0,1.123-0.331,1.371-0.89c2.963-6.654,3.375-12.337,3.392-12.576 c0.056-0.825-0.568-1.54-1.395-1.597C49.108,51.146,48.409,51.763,48.353,52.589z"/><path fill="#40396e" d="M34.004,55.04c0.393-0.729,0.118-1.64-0.611-2.031c-0.727-0.389-1.639-0.119-2.031,0.611 c-3.46,6.441-7.23,10.434-15.323,10.434c-0.828,0-1.5,0.672-1.5,1.5s0.672,1.5,1.5,1.5C26.156,67.054,30.652,61.279,34.004,55.04z"/><path fill="#40396e" d="M44.78,22.459c-0.162-0.812-0.947-1.341-1.764-1.18C31.468,23.572,26.26,31.676,22.458,37.593 c-0.448,0.696-0.246,1.625,0.451,2.072c0.251,0.161,0.531,0.238,0.81,0.238c0.493,0,0.977-0.243,1.263-0.689 c4.553-7.084,9.096-13.102,18.619-14.991C44.413,24.061,44.941,23.271,44.78,22.459z"/><path fill="#40396e" d="M54.465,29.083c-1.488-0.266-3.041-0.4-4.616-0.4c-5.129,0-9.419,1.458-13.115,4.458 c-0.644,0.522-0.741,1.467-0.22,2.11c0.297,0.365,0.729,0.555,1.166,0.555c0.332,0,0.666-0.109,0.944-0.335 c3.141-2.549,6.812-3.788,11.225-3.788c1.398,0,2.774,0.119,4.089,0.354c0.813,0.146,1.595-0.396,1.74-1.213 C55.823,30.008,55.28,29.229,54.465,29.083z"/><path fill="#40396e" d="M61.765,49.108c0.206,0.634,0.794,1.036,1.427,1.036c0.153,0,0.31-0.023,0.464-0.073 c0.788-0.257,1.219-1.103,0.963-1.891c-2.369-7.282-7.752-11.459-14.77-11.459c-8.864,0-12.611,5.646-15.429,10.937 c-0.389,0.731-0.112,1.64,0.619,2.029c0.729,0.388,1.64,0.113,2.029-0.619c3.071-5.771,6.281-9.347,12.78-9.347 C57.561,39.722,60.625,45.603,61.765,49.108z"/><path fill="#40396e" d="M13.341,50.976c0.161,0,0.326-0.026,0.487-0.081c3.5-1.202,5.892-4.004,7.584-6.312 c0.489-0.668,0.346-1.606-0.323-2.097c-0.665-0.487-1.605-0.347-2.097,0.323c-2.129,2.902-4.021,4.521-6.139,5.247 c-0.783,0.27-1.2,1.123-0.932,1.906C12.136,50.585,12.718,50.976,13.341,50.976z"/><path fill="#40396e" d="M49.937,20.647c-0.843-0.057-1.538,0.583-1.585,1.409c-0.049,0.827,0.583,1.537,1.409,1.585 c9.958,0.582,17.4,4.381,22.121,11.289c7.924,11.599,6.161,29.156,4.141,35.385c-0.256,0.788,0.176,1.634,0.964,1.89 c0.154,0.05,0.31,0.073,0.463,0.073c0.633,0,1.221-0.403,1.427-1.037c2.253-6.944,4.113-25.371-4.517-38.003 C69.087,25.522,60.87,21.286,49.937,20.647z"/><path fill="#40396e" d="M70.224,71.127c-0.802-0.212-1.622,0.267-1.834,1.066c-1.244,4.708-2.514,8.068-2.526,8.102 c-0.294,0.774,0.096,1.641,0.87,1.935c0.175,0.066,0.355,0.098,0.532,0.098c0.604,0,1.175-0.368,1.402-0.967 c0.054-0.143,1.335-3.53,2.622-8.399C71.502,72.159,71.024,71.339,70.224,71.127z"/><path fill="#40396e" d="M60.813,31.194c-0.739-0.376-1.643-0.084-2.018,0.654c-0.377,0.738-0.084,1.642,0.654,2.018 c7.249,3.697,11.407,11.731,11.407,22.041c0,2.854-0.326,6.092-0.97,9.625c-0.148,0.814,0.392,1.596,1.207,1.744 c0.091,0.017,0.181,0.024,0.271,0.024c0.711,0,1.342-0.507,1.474-1.231c0.676-3.71,1.019-7.129,1.019-10.162 C73.857,44.43,69.104,35.422,60.813,31.194z"/><path fill="#40396e" d="M30.323,46.339c1.262-2.11,2.566-4.293,4.035-6.28c0.492-0.666,0.352-1.605-0.314-2.098 c-0.667-0.492-1.605-0.353-2.098,0.314c-1.557,2.105-2.899,4.352-4.198,6.523c-3.807,6.367-7.092,11.87-14.097,11.222 c-0.833-0.077-1.556,0.532-1.632,1.356c-0.075,0.825,0.532,1.556,1.356,1.632c0.487,0.044,0.958,0.066,1.417,0.066 C22.707,59.075,26.576,52.605,30.323,46.339z"/><path fill="#40396e" d="M64.318,54.407c-0.828,0-1.5,0.672-1.5,1.5c0,16.541-9.608,28.936-9.705,29.059 c-0.512,0.65-0.4,1.593,0.249,2.105c0.275,0.218,0.604,0.323,0.929,0.323c0.442,0,0.881-0.195,1.177-0.57 c0.423-0.534,10.351-13.302,10.351-30.917C65.818,55.079,65.146,54.407,64.318,54.407z"/></svg>
