<svg xmlns="http://www.w3.org/2000/svg" viewBox="0 0 100 100"><path d="M94,75.358V47.463l1.987-1.237C98.5,44.661,100,41.96,100,39s-1.5-5.661-4.014-7.227L57.628,7.894	c-4.088-2.544-9.168-2.544-13.256,0l0,0L16,25.557V75.5c0,2.949,1.986,5.529,4.837,6.284c15.48,4.098,26.204,11.873,26.299,11.943	c1.146,0.847,2.502,1.269,3.86,1.269c1.355,0,2.71-0.421,3.857-1.261c0.097-0.071,8.96-6.496,22.192-10.744	C77.02,83.294,77,83.599,77,83.908c0,3.853,2.917,8.421,5.364,11.576C83.595,97.071,85.491,98,87.5,98s3.905-0.929,5.136-2.516	C95.083,92.33,98,87.761,98,83.908C98,80.444,96.432,77.358,94,75.358z" opacity=".35"/><path fill="#f2f2f2" d="M92,73.358V45.463l1.987-1.237C96.5,42.661,98,39.96,98,37s-1.5-5.661-4.014-7.227L55.628,5.894	c-4.088-2.544-9.168-2.544-13.256,0l0,0L4.013,29.774C1.5,31.339,0,34.04,0,37s1.5,5.661,4.014,7.227L14,50.443V73.5	c0,2.949,1.986,5.529,4.837,6.284c15.48,4.098,26.204,11.873,26.299,11.943c1.146,0.847,2.502,1.269,3.86,1.269	c1.355,0,2.71-0.421,3.857-1.261c0.097-0.071,8.96-6.496,22.192-10.744C75.02,81.294,75,81.599,75,81.908	c0,3.853,2.917,8.421,5.364,11.576C81.595,95.071,83.491,96,85.5,96s3.905-0.929,5.136-2.516C93.083,90.33,96,85.761,96,81.908	C96,78.444,94.432,75.358,92,73.358z"/><path fill="#707cc0" d="M45.807,11.413L7.449,35.292c-1.265,0.788-1.265,2.629,0,3.417l38.358,23.879	c1.955,1.217,4.432,1.217,6.386,0l38.358-23.879c1.265-0.788,1.265-2.629,0-3.417L52.193,11.413	C50.238,10.196,47.762,10.196,45.807,11.413z"/><path fill="#9aa2e6" d="M77.5,46.5c0-6.075-12.76-13-28.5-13s-28.5,6.925-28.5,13c0,0.829,0,27,0,27c17,4.5,28.5,13,28.5,13	s11.5-8.5,28.5-13C77.5,73.5,77.5,47.125,77.5,46.5z"/><path fill="#ffc571" d="M85.5,89.5c0,0,4-5.156,4-7.592c0-2.435-1.79-4.408-4-4.408s-4,1.973-4,4.408	C81.5,84.344,85.5,89.5,85.5,89.5z"/><path fill="#40396e" d="M87,76.229V38.5c0-0.828-0.672-1.5-1.5-1.5S84,37.672,84,38.5v37.729c-2.305,0.704-4,2.981-4,5.679	c0,2.807,3.594,7.583,4.315,8.511C84.599,90.786,85.037,91,85.5,91s0.901-0.214,1.185-0.581C87.406,89.491,91,84.715,91,81.908	C91,79.21,89.305,76.933,87,76.229z M85.501,86.942C84.25,85.098,83,82.896,83,81.908C83,80.305,84.122,79,85.5,79	s2.5,1.305,2.5,2.908C88,82.828,86.847,84.963,85.501,86.942z"/><path fill="#40396e" d="M91.344,34.018L52.986,10.139c-2.458-1.53-5.514-1.53-7.972,0c0,0,0,0,0,0L6.656,34.018	C5.619,34.664,5,35.779,5,37s0.619,2.336,1.656,2.982L19,47.666V73.5c0,0.681,0.458,1.276,1.116,1.45	c16.499,4.367,27.88,12.673,27.993,12.756C48.374,87.902,48.687,88,49,88c0.313,0,0.627-0.098,0.892-0.294	c0.113-0.083,11.46-8.38,27.992-12.756C78.542,74.776,79,74.181,79,73.5V47.666l12.344-7.684C92.381,39.336,93,38.221,93,37	S92.381,34.664,91.344,34.018z M76,72.353c-14.01,3.899-24.035,10.283-27,12.312c-2.965-2.029-12.99-8.413-27-12.312V46.5	c0-0.156,0.015-0.314,0.041-0.475C22.77,41.414,33.864,35,49,35c15.136,0,26.23,6.414,26.959,11.025	C75.985,46.186,76,46.344,76,46.5V72.353z M89.758,37.435l-11.133,6.931C76.276,37.663,63.213,32,49,32	c-14.213,0-27.276,5.663-29.624,12.366L8.242,37.435C8.031,37.304,8,37.106,8,37s0.031-0.304,0.242-0.435L46.6,12.686h0	c1.481-0.922,3.321-0.922,4.801,0l38.357,23.879C89.969,36.696,90,36.894,90,37S89.969,37.304,89.758,37.435z"/></svg>
