<svg xmlns="http://www.w3.org/2000/svg" viewBox="0 0 100 100"><path d="M17.797,98.969c-4.025,0-7.785-1.589-10.346-4.365c-1.319-1.329-2.274-3.027-2.717-4.857	c-2.384-8.713,4.049-15.677,10.612-22.708c6.083-6.517,12.568-11.922,16.956-15.32c-0.086-0.84-0.124-1.699-0.113-2.576	c-0.113-0.721-0.143-1.454-0.09-2.182c-2.815-3.714-2.575-9.019,0.719-12.459c0.026-2.762,1.351-5.556,3.603-7.344	c0.441-2.457,1.931-4.736,4.015-6.16c0.838-3.158,3.519-5.848,6.678-6.681c1.424-2.079,3.702-3.565,6.152-4.004	c1.783-2.23,4.487-3.561,7.338-3.599c3.266-3.251,8.867-3.561,12.472-0.72c1.084-0.074,2.178,0.035,3.224,0.326	c4.644,0.255,9.033,2.03,12.161,5.007c0,0,3.548,3.548,3.548,3.548c4.97,4.972,6.193,12.491,3.445,21.177	c-5.185,17.216-27.76,37.359-45.259,34.439l-19.826,22.59C27.192,96.801,22.59,98.969,17.797,98.969z" opacity=".35"/><path fill="#f2f2f2" d="M15.797,96.969c-4.025,0-7.785-1.589-10.346-4.365c-1.319-1.329-2.274-3.027-2.717-4.857	c-2.384-8.713,4.049-15.677,10.612-22.708c6.083-6.517,12.568-11.922,16.956-15.32c-0.086-0.84-0.124-1.699-0.113-2.576	c-0.113-0.721-0.143-1.454-0.09-2.182c-2.815-3.714-2.575-9.019,0.719-12.459c0.026-2.762,1.351-5.556,3.603-7.344	c0.441-2.457,1.931-4.736,4.015-6.16c0.838-3.158,3.519-5.848,6.678-6.681c1.424-2.079,3.702-3.565,6.152-4.004	c1.783-2.23,4.487-3.561,7.338-3.599c3.266-3.251,8.867-3.561,12.472-0.72c1.084-0.074,2.178,0.035,3.224,0.326	c4.644,0.255,9.033,2.03,12.161,5.007c0,0,3.548,3.548,3.548,3.548c4.97,4.972,6.193,12.491,3.445,21.177	c-5.185,17.216-27.76,37.359-45.259,34.439l-19.826,22.59C25.192,94.801,20.59,96.969,15.797,96.969z"/><path fill="#d47f56" d="M15.798,90.589c-2.302,0-4.389-0.876-5.744-2.408c-0.361-0.342-0.65-0.75-0.86-1.216	c-0.124-0.242-0.215-0.503-0.272-0.782C7.601,81.7,10.294,77.66,18.01,69.391c7.257-7.774,15.1-13.888,19.13-16.84	c0.191-0.139,0.187-0.399,0.127-0.579c-0.546-1.607-0.774-3.424-0.679-5.401c-0.187-0.621-0.18-1.28,0.02-1.901	c-0.056-0.696-0.068-1.409-0.033-2.129l-1.098-1.098c-0.612-0.612-0.949-1.426-0.949-2.291c0-0.867,0.338-1.68,0.95-2.292	c0.61-0.611,1.424-0.948,2.29-0.948c0.074,0,0.149,0.002,0.223,0.007c0.098-0.271,0.201-0.544,0.31-0.817l-0.15-0.151	c-1.262-1.264-1.262-3.318-0.001-4.582c0.612-0.612,1.426-0.949,2.292-0.949c0.24,0,0.477,0.026,0.706,0.077	c0.092-0.15,0.185-0.298,0.279-0.446c-1.101-1.272-1.047-3.202,0.161-4.41c0.613-0.612,1.426-0.948,2.291-0.948	c0.472,0,0.929,0.1,1.345,0.29c0.045-0.051,0.09-0.102,0.135-0.154c-1.216-1.267-1.2-3.286,0.047-4.533	c0.611-0.612,1.425-0.949,2.291-0.949c0.848,0,1.647,0.324,2.255,0.913c0.05-0.043,0.1-0.086,0.149-0.13	c-0.196-0.421-0.298-0.884-0.298-1.362c0-0.866,0.337-1.68,0.949-2.292c0.612-0.612,1.425-0.948,2.291-0.948	c0.811,0,1.576,0.295,2.172,0.835c0.137-0.085,0.273-0.17,0.409-0.253c-0.062-0.252-0.094-0.514-0.094-0.779	c0-0.865,0.337-1.679,0.949-2.291c0.612-0.612,1.425-0.949,2.291-0.949c0.866,0,1.68,0.337,2.291,0.949l0.248,0.249	c0.246-0.095,0.49-0.186,0.731-0.272c-0.013-0.118-0.02-0.238-0.02-0.359c0-0.865,0.337-1.679,0.949-2.291	c0.612-0.612,1.425-0.949,2.291-0.949c0.865,0,1.679,0.338,2.291,0.949l1.145,1.145c0.048,0.047,0.094,0.097,0.139,0.148	c0.113-0.002,0.226-0.004,0.339-0.004c0.369,0,0.744,0.014,1.121,0.039c0.445-0.226,0.939-0.346,1.443-0.346	c0.49,0,0.966,0.11,1.401,0.321c0.019,0,0.037,0,0.056,0c3.355,0,6.535,1.145,8.726,3.143l3.575,3.573	c3.203,3.202,3.868,8.436,1.874,14.739c-1.88,5.94-5.935,12.232-11.42,17.717c-7.735,7.734-17.061,12.539-24.338,12.539	c0,0,0,0-0.001,0c-1.88,0-3.585-0.322-5.069-0.954c-0.103-0.044-0.212-0.068-0.315-0.068c-0.165,0-0.297,0.055-0.393,0.163	L23.568,86.88C21.57,89.229,18.731,90.589,15.798,90.589z"/><path fill="#ffb789" d="M80.806,14.982c-5.937-5.937-19.689-1.812-30.716,9.215c-9.221,9.221-13.592,20.331-11.309,27.197	c0.306,0.919,0.046,1.929-0.736,2.502c-3.736,2.74-11.618,8.852-18.851,16.601c-7.56,8.1-10.161,11.983-8.541,15.763	c1.068,2.493,5.4,1.62,9.18-2.16L43.96,56.854c6.827,2.618,18.375-1.413,27.791-10.829C82.778,34.999,86.743,20.919,80.806,14.982z"/><ellipse cx="58.681" cy="32.787" fill="#fedeb3" rx="25.274" ry="14.25" transform="rotate(-45.001 58.68 32.788)"/><path fill="#d47f56" d="M47.229,30.455l0.17-0.17c0.586-0.586,0.586-1.536,0-2.121l-2.461-2.461 c-0.586-0.586-1.536-0.586-2.121,0l-0.17,0.17c-0.586,0.586-0.586,1.536,0,2.121l2.461,2.461 C45.693,31.04,46.643,31.04,47.229,30.455z"/><path fill="#d47f56" d="M56.393,21.29l0.17-0.17c0.586-0.586,0.586-1.536,0-2.121l-2.461-2.461 c-0.586-0.586-1.536-0.586-2.121,0l-0.17,0.17c-0.586,0.586-0.586,1.536,0,2.121l2.461,2.461 C54.858,21.876,55.807,21.876,56.393,21.29z"/><path fill="#d47f56" d="M70.903,35.8l0.17-0.17c0.586-0.586,0.586-1.536,0-2.121l-3.224-3.224 c-0.586-0.586-1.536-0.586-2.121,0l-0.17,0.17c-0.586,0.586-0.586,1.536,0,2.121l3.224,3.224 C69.367,36.386,70.317,36.386,70.903,35.8z"/><path fill="#d47f56" d="M61.739,44.964l0.17-0.17c0.586-0.586,0.586-1.536,0-2.121l-3.224-3.224 c-0.586-0.586-1.536-0.586-2.121,0l-0.17,0.17c-0.586,0.586-0.586,1.536,0,2.121l3.224,3.224 C60.203,45.55,61.153,45.55,61.739,44.964z"/><path fill="#d47f56" d="M65.557,25.872l0.17-0.17c0.586-0.586,0.586-1.536,0-2.121l-2.461-2.461 c-0.586-0.586-1.536-0.586-2.121,0l-0.17,0.17c-0.586,0.586-0.586,1.536,0,2.121l2.461,2.461 C64.022,26.458,64.971,26.458,65.557,25.872z"/><path fill="#d47f56" d="M51.811,39.619l0.17-0.17c0.586-0.586,0.586-1.536,0-2.121l-2.461-2.461 c-0.586-0.586-1.536-0.586-2.121,0l-0.17,0.17c-0.586,0.586-0.586,1.536,0,2.121l2.461,2.461 C50.275,40.204,51.225,40.204,51.811,39.619z"/><path fill="#d47f56" d="M73.958,29.691l0.17-0.17c0.586-0.586,0.586-1.536,0-2.121l-2.461-2.461 c-0.586-0.586-1.536-0.586-2.121,0l-0.17,0.17c-0.586,0.586-0.586,1.536,0,2.121l2.461,2.461 C72.422,30.277,73.372,30.277,73.958,29.691z"/><path fill="#d47f56" d="M61.739,17.472l0.17-0.17c0.586-0.586,0.586-1.536,0-2.121l-2.079-2.079 c-0.586-0.586-1.536-0.586-2.121,0l-0.17,0.17c-0.586,0.586-0.586,1.536,0,2.121l2.079,2.079 C60.203,18.058,61.153,18.058,61.739,17.472z"/><path fill="#d47f56" d="M69.757,20.909l0.17-0.17c0.586-0.586,0.586-1.536,0-2.121l-1.697-1.697 c-0.586-0.586-1.536-0.586-2.121,0l-0.17,0.17c-0.586,0.586-0.586,1.536,0,2.121l1.697,1.697 C68.222,21.494,69.172,21.494,69.757,20.909z"/><path fill="#d47f56" d="M67.466,14.036l0.17-0.17c0.586-0.586,0.586-1.536,0-2.121l-1.315-1.315 c-0.586-0.586-1.536-0.586-2.121,0l-0.17,0.17c-0.586,0.586-0.586,1.536,0,2.121l1.315,1.315 C65.931,14.621,66.881,14.621,67.466,14.036z"/><path fill="#d47f56" d="M41.883,48.019l0.17-0.17c0.586-0.586,0.586-1.536,0-2.121l-1.315-1.315 c-0.586-0.586-1.536-0.586-2.121,0l-0.17,0.17c-0.586,0.586-0.586,1.536,0,2.121l1.315,1.315 C40.348,48.605,41.297,48.605,41.883,48.019z"/><path fill="#d47f56" d="M73.958,15.945l0.17-0.17c0.586-0.586,0.586-1.536,0-2.121l-1.315-1.315 c-0.586-0.586-1.536-0.586-2.121,0l-0.17,0.17c-0.586,0.586-0.586,1.536,0,2.121l1.315,1.315 C72.422,16.531,73.372,16.531,73.958,15.945z"/><path fill="#d47f56" d="M76.249,22.818l0.17-0.17c0.586-0.586,0.586-1.536,0-2.121l-1.315-1.315 c-0.586-0.586-1.536-0.586-2.121,0l-0.17,0.17c-0.586,0.586-0.586,1.536,0,2.121l1.315,1.315 C74.713,23.404,75.663,23.404,76.249,22.818z"/><path fill="#d47f56" d="M39.974,41.528l0.17-0.17c0.586-0.586,0.586-1.536,0-2.121l-1.315-1.315 c-0.586-0.586-1.536-0.586-2.121,0l-0.17,0.17c-0.586,0.586-0.586,1.536,0,2.121l1.315,1.315 C38.438,42.114,39.388,42.114,39.974,41.528z"/><path fill="#d47f56" d="M48.756,50.31l0.17-0.17c0.586-0.586,0.586-1.536,0-2.121l-1.315-1.315 c-0.586-0.586-1.536-0.586-2.121,0l-0.17,0.17c-0.586,0.586-0.586,1.536,0,2.121l1.315,1.315 C47.221,50.896,48.171,50.896,48.756,50.31z"/><path fill="#d47f56" d="M46.847,43.819l0.17-0.17c0.586-0.586,0.586-1.536,0-2.121l-1.315-1.315 c-0.586-0.586-1.536-0.586-2.121,0l-0.17,0.17c-0.586,0.586-0.586,1.536,0,2.121l1.315,1.315 C45.312,44.405,46.261,44.405,46.847,43.819z"/><path fill="#d47f56" d="M43.411,35.8l0.17-0.17c0.586-0.586,0.586-1.536,0-2.121l-2.079-2.079 c-0.586-0.586-1.536-0.586-2.121,0l-0.17,0.17c-0.586,0.586-0.586,1.536,0,2.121l2.079,2.079 C41.875,36.386,42.825,36.386,43.411,35.8z"/><path fill="#d47f56" d="M55.629,48.019l0.17-0.17c0.586-0.586,0.586-1.536,0-2.121l-1.697-1.697 c-0.586-0.586-1.536-0.586-2.121,0l-0.17,0.17c-0.586,0.586-0.586,1.536,0,2.121l1.697,1.697 C54.094,48.605,55.044,48.605,55.629,48.019z"/><path fill="#d47f56" d="M67.085,41.146l0.17-0.17c0.586-0.586,0.586-1.536,0-2.121l-3.988-3.988 c-0.586-0.586-1.536-0.586-2.121,0l-0.17,0.17c-0.586,0.586-0.586,1.536,0,2.121l3.988,3.988 C65.549,41.732,66.499,41.732,67.085,41.146z"/><path fill="#d47f56" d="M56.775,35.418l0.17-0.17c0.586-0.586,0.586-1.536,0-2.121l-3.224-3.224 c-0.586-0.586-1.536-0.586-2.121,0l-0.17,0.17c-0.586,0.586-0.586,1.536,0,2.121l3.224,3.224 C55.239,36.004,56.189,36.004,56.775,35.418z"/><path fill="#d47f56" d="M61.357,30.836l0.17-0.17c0.586-0.586,0.586-1.536,0-2.121l-3.224-3.224 c-0.586-0.586-1.536-0.586-2.121,0l-0.17,0.17c-0.586,0.586-0.586,1.536,0,2.121l3.224,3.224 C59.821,31.422,60.771,31.422,61.357,30.836z"/><path fill="#d47f56" d="M51.811,25.872l0.17-0.17c0.586-0.586,0.586-1.536,0-2.121l-3.224-3.224 c-0.586-0.586-1.536-0.586-2.121,0l-0.17,0.17c-0.586,0.586-0.586,1.536,0,2.121l3.224,3.224 C50.275,26.458,51.225,26.458,51.811,25.872z"/><g><path fill="#40396e" d="M65.26,10.04c0.415,0,0.829,0.158,1.145,0.475l1.146,1.146c0.193,0.193,0.307,0.427,0.382,0.672 c0.421-0.036,0.834-0.053,1.239-0.053c0.524,0,1.034,0.028,1.533,0.079c0.3-0.258,0.666-0.386,1.033-0.386 c0.341,0,0.684,0.111,0.974,0.33c0.162-0.006,0.323-0.009,0.484-0.009c2.967,0,5.784,1.034,7.633,2.719l3.522,3.522 c5.694,5.694,1.42,19.199-9.546,30.165c-7.671,7.671-16.581,12.064-23.194,12.064c-1.636,0-3.133-0.269-4.433-0.825 c-0.308-0.131-0.632-0.197-0.95-0.197c-0.604,0-1.19,0.237-1.609,0.712L22.354,85.807c-1.83,2.152-4.304,3.162-6.557,3.162 c-1.824,0-3.505-0.663-4.58-1.919c-0.235-0.21-0.427-0.472-0.563-0.79c-0.078-0.141-0.128-0.296-0.155-0.461 c-1.157-3.717,1.438-7.525,8.696-15.302c7.266-7.785,15.189-13.918,18.903-16.639c0.751-0.55,1.002-1.524,0.703-2.406 c-0.515-1.52-0.701-3.249-0.576-5.125c-0.213-0.454-0.197-0.97,0.034-1.417c-0.108-0.995-0.114-2.043-0.002-3.141 c-0.176-0.078-0.344-0.18-0.489-0.325l-1.146-1.146c-0.633-0.633-0.633-1.658,0-2.291c0.316-0.316,0.731-0.474,1.146-0.474 c0.415,0,0.829,0.158,1.146,0.474l0.075,0.075c0.318-1.099,0.728-2.223,1.223-3.359l-0.916-0.916c-0.633-0.633-0.633-1.658,0-2.291 c0.316-0.316,0.731-0.475,1.146-0.475s0.829,0.158,1.146,0.475l0.158,0.158c0.532-0.944,1.113-1.887,1.756-2.826l-0.769-0.769 c-0.633-0.633-0.633-1.658,0-2.291c0.316-0.316,0.731-0.475,1.146-0.475s0.829,0.158,1.146,0.475l0.434,0.434 c0.668-0.827,1.387-1.64,2.139-2.443l-1.046-1.046c-0.633-0.633-0.633-1.658,0-2.291c0.316-0.316,0.731-0.475,1.146-0.475 c0.415,0,0.829,0.158,1.146,0.475l1.052,1.052c0.807-0.747,1.624-1.465,2.455-2.127l-0.452-0.452c-0.633-0.633-0.633-1.658,0-2.291 c0.316-0.316,0.731-0.475,1.145-0.475c0.415,0,0.829,0.158,1.145,0.475L55,17.436c0.944-0.636,1.892-1.219,2.84-1.742l-0.216-0.216 c-0.633-0.633-0.633-1.658,0-2.291c0.316-0.316,0.731-0.474,1.146-0.474c0.415,0,0.829,0.158,1.146,0.474l1.007,1.007 c1.146-0.484,2.28-0.893,3.386-1.196l-0.193-0.193c-0.633-0.633-0.633-1.658,0-2.291C64.431,10.198,64.846,10.04,65.26,10.04 M65.26,7.04c-1.234,0-2.394,0.481-3.267,1.353c-0.52,0.52-0.901,1.143-1.124,1.822c-0.642-0.329-1.358-0.502-2.1-0.502 c-1.234,0-2.394,0.48-3.267,1.353c-0.64,0.64-1.052,1.423-1.238,2.246c-0.394-0.107-0.804-0.163-1.223-0.163 c-1.234,0-2.394,0.481-3.267,1.353c-0.697,0.696-1.143,1.576-1.295,2.531c-0.256-0.044-0.518-0.066-0.784-0.066 c-1.234,0-2.394,0.481-3.267,1.353c-1.1,1.1-1.528,2.622-1.285,4.05c-0.956,0.151-1.837,0.598-2.534,1.296 c-0.872,0.872-1.353,2.033-1.353,3.267c0,0.418,0.055,0.827,0.162,1.22c-0.844,0.19-1.619,0.614-2.245,1.241 c-1.45,1.45-1.733,3.631-0.849,5.367c-0.68,0.223-1.303,0.604-1.824,1.124c-1.801,1.802-1.801,4.733,0,6.534l0.676,0.676 c-0.007,0.482,0.006,0.959,0.037,1.431c-0.185,0.723-0.19,1.475-0.014,2.199c-0.068,1.838,0.127,3.553,0.579,5.114 c-4.203,3.112-11.758,9.09-18.777,16.61c-6.749,7.231-11.065,12.415-9.418,18.073c0.08,0.367,0.203,0.716,0.367,1.042 c0.274,0.597,0.646,1.126,1.109,1.575c1.618,1.8,4.062,2.829,6.737,2.829c3.339,0,6.562-1.538,8.842-4.218l21.835-24.864 c1.54,0.581,3.265,0.875,5.138,0.875c7.631,0,17.331-4.959,25.315-12.943c5.638-5.638,9.814-12.128,11.759-18.276 c2.158-6.818,1.372-12.547-2.213-16.132l-3.522-3.522c-0.033-0.033-0.066-0.065-0.1-0.096c-2.392-2.18-5.817-3.45-9.428-3.501 c-0.536-0.211-1.109-0.322-1.685-0.322c-0.586,0-1.163,0.113-1.7,0.328c-0.209-0.01-0.418-0.017-0.625-0.02l-0.887-0.887 C67.655,7.52,66.494,7.04,65.26,7.04L65.26,7.04z"/></g><ellipse cx="16.66" cy="80.386" fill="#d47f56" rx="2.7" ry="1.62" transform="rotate(-45.001 16.66 80.387)"/></svg>
