<svg xmlns="http://www.w3.org/2000/svg" viewBox="0 0 100 100"><path d="M51,93.013c-1.571,0-2.787-0.558-3.971-1.591l-34.554-30.18l-0.614-0.581 c-6.079-5.505-9.866-13.361-9.866-21.546c0-16.051,13.059-29.109,29.11-29.109c7.46,0,14.544,2.864,19.881,7.868 c5.337-5.003,12.421-7.868,19.882-7.868c16.051,0,29.109,13.059,29.109,29.109c0,8.208-3.515,16.083-9.645,21.609l-0.739,0.666 c-0.096,0.096-0.195,0.188-0.297,0.278l-34.018,29.74C54.092,92.442,52.573,93.013,51,93.013z" opacity=".35"/><path fill="#f2f2f2" d="M49,91.013c-1.571,0-3.089-0.569-4.273-1.602L10.172,59.23l-0.614-0.581 c-6.079-5.505-9.564-13.351-9.564-21.536c0-16.051,13.059-29.109,29.11-29.109c7.46,0,14.544,2.864,19.881,7.868 c5.337-5.003,12.421-7.868,19.882-7.868c16.051,0,29.109,13.059,29.109,29.109c0,8.208-3.515,16.083-9.645,21.609l-0.739,0.666 c-0.096,0.096-0.195,0.188-0.297,0.278l-34.018,29.74C52.092,90.442,50.573,91.013,49,91.013z"/><path fill="#f4665c" d="M92.476,37.114c0-13.039-10.57-23.609-23.609-23.609c-8.359,0-15.686,4.356-19.882,10.91 c-4.195-6.554-11.522-10.91-19.882-10.91c-13.039,0-23.609,10.57-23.609,23.609c0,6.963,3.032,13.202,7.827,17.523l-0.031,0.02 L49,85.834l35.68-31.178l-0.031-0.02C89.444,50.316,92.476,44.077,92.476,37.114z"/><polyline fill="none" stroke="#fff" stroke-linecap="round" stroke-linejoin="round" stroke-miterlimit="10" stroke-width="3" points="7.5,45.5 24.5,45.5 28.5,39.5 32.5,51.5 39.5,29.5 45.5,65.5 54.5,38.5 60.5,53.5 65.5,45.5 71.5,45.5"/><circle cx="75.5" cy="45.5" r="4.5" fill="#fff"/><path fill="none" stroke="#40396e" stroke-linecap="round" stroke-linejoin="round" stroke-miterlimit="10" stroke-width="3" d="M14.515,54.393l-0.524-0.499C9.227,49.6,6.494,43.483,6.494,37.114c0-12.467,10.143-22.609,22.61-22.609 c7.733,0,14.851,3.906,19.039,10.449l0.842,1.316l0.842-1.316c4.188-6.543,11.306-10.449,19.04-10.449 c12.467,0,22.609,10.143,22.609,22.609c0,6.37-2.732,12.486-7.497,16.781l-0.978,0.881l0.007,0.004L49,84.513L14.515,54.393z"/></svg>
