<svg xmlns="http://www.w3.org/2000/svg" viewBox="0 0 100 100"><path d="M19.5,95C13.71,95,9,90.29,9,84.5v-41C9,37.71,13.71,33,19.5,33h0.89C22.798,17.722,36.056,6,52,6 s29.202,11.722,31.61,27h0.89C90.29,33,95,37.71,95,43.5v41C95,90.29,90.29,95,84.5,95H19.5z" opacity=".35"/><path fill="#f2f2f2" d="M17.5,93C11.71,93,7,88.29,7,82.5v-41C7,35.71,11.71,31,17.5,31h0.89C20.798,15.722,34.056,4,50,4 s29.202,11.722,31.61,27h0.89C88.29,31,93,35.71,93,41.5v41C93,88.29,88.29,93,82.5,93H17.5z"/><path fill="#9aa2e6" d="M82.5,37.5h-7V36c0-14.083-11.417-25.5-25.5-25.5S24.5,21.917,24.5,36v1.5h-7c-2.209,0-4,1.791-4,4 v41c0,2.209,1.791,4,4,4h65c2.209,0,4-1.791,4-4v-41C86.5,39.291,84.709,37.5,82.5,37.5z M31.5,36c0-10.201,8.299-18.5,18.5-18.5 S68.5,25.799,68.5,36v1.5h-37V36z"/><path fill="#ffc571" d="M82.5,87h-65c-2.209,0-4-1.791-4-4V43c0-2.209,1.791-4,4-4h65c2.209,0,4,1.791,4,4v40 C86.5,85.209,84.709,87,82.5,87z"/><path fill="none" stroke="#40396e" stroke-linecap="round" stroke-linejoin="round" stroke-miterlimit="10" stroke-width="3" d="M82.5,37.5h-7V36c0-14.083-11.417-25.5-25.5-25.5S24.5,21.917,24.5,36v1.5h-7c-2.209,0-4,1.791-4,4v41c0,2.209,1.791,4,4,4h65 c2.209,0,4-1.791,4-4v-41C86.5,39.291,84.709,37.5,82.5,37.5z M31.5,36c0-10.201,8.299-18.5,18.5-18.5S68.5,25.799,68.5,36v1.5h-37 V36z"/><circle cx="50" cy="58" r="6" fill="#40396e"/><rect width="6" height="11" x="47" y="62" fill="#40396e"/></svg>
