<svg xmlns="http://www.w3.org/2000/svg" baseProfile="basic" viewBox="0 0 100 100"><path d="M94,91.5c0,3.58-2.92,6.5-6.5,6.5h-71c-1.74,0-3.37-0.68-4.6-1.9c-1.22-1.23-1.9-2.86-1.9-4.6c0-8.4,5.3-15.93,13.2-18.77l10.44-4.11C31.84,65.91,29.21,57.38,28,56c-3.8-4.36-7.61-11.88-3.61-16.55c0.39-0.45,0.82-0.87,1.3-1.23c-1.42-7.58-0.62-14.07,2.38-19.34c0.59-1.03,1.24-1.97,1.93-2.82l-0.78-2.89c-0.83-3.13,0.73-6.34,3.7-7.64C33.26,5.39,41.2,2,52,2s18.74,3.39,19.08,3.53c2.97,1.3,4.53,4.51,3.7,7.66l-1.15,4.25c1.25,1.28,2.3,2.74,3.12,4.35c2.9,5.71,2.48,12.15,1.64,16.48c0.45,0.35,0.87,0.75,1.24,1.18c4,4.67,2.54,12.78-1.27,17.14c-1.14,1.31-2.52,2.29-4.05,2.91c-0.61,2.87-1.74,6.23-3.84,9.16l10.38,4.09C88.72,75.58,94,83.1,94,91.5z" opacity=".35"/><path fill="#f2f2f2" d="M63.85,10.15c0.16,0.18,0.31,0.37,0.45,0.55c0.1,0.04,0.19,0.08,0.29,0.12l0.11-0.39C64.45,10.34,64.17,10.25,63.85,10.15z"/><path fill="#f2f2f2" d="M92,89.5c0,3.58-2.92,6.5-6.5,6.5h-71c-1.74,0-3.37-0.68-4.6-1.9C8.68,92.87,8,91.24,8,89.5c0-8.4,5.3-15.93,13.2-18.77l10.44-4.11c-1.8-2.71-2.94-5.96-3.67-9.01c-1.64-0.62-3.11-1.64-4.32-3.02c-3.8-4.36-5.26-12.47-1.26-17.14c0.39-0.45,0.82-0.87,1.3-1.23c-1.42-7.58-0.62-14.07,2.38-19.34c0.59-1.03,1.24-1.97,1.93-2.82l-0.78-2.89c-0.83-3.13,0.73-6.34,3.7-7.64C31.26,3.39,39.2,0,50,0s18.74,3.39,19.08,3.53c2.97,1.3,4.53,4.51,3.7,7.66l-1.15,4.25c1.25,1.28,2.3,2.74,3.12,4.35c2.9,5.71,2.48,12.15,1.64,16.48c0.45,0.35,0.87,0.75,1.24,1.18c4,4.67,2.54,12.78-1.27,17.14c-1.14,1.31-2.52,2.29-4.05,2.91c-0.61,2.87-1.74,6.23-3.84,9.16l10.38,4.09C86.72,73.58,92,81.1,92,89.5z"/><path fill="#ffc7a3" d="M76.545,76.828l-16.573-5.907l0.505-6.725c3.73-3.02,4.386-7.224,6.141-12.574c1.469,1.375,3.98,0.863,5.875-1.306c2.061-2.359,2.609-5.779,1.225-7.638c-1.106-1.485-3.112-1.521-4.924-0.273C69.298,39.159,69,36.063,69,33.448c0-12.112-8.216-19.43-19-19.43s-19,7.318-19,19.43c0,2.662-0.21,5.823,0.421,9.134c-0.421-1.573-2.99-1.456-4.146,0.096c-1.385,1.859-0.836,5.278,1.225,7.638c2.061,2.359,3.834,2.765,5.218,0.906c0.006-0.007,0.01-0.016,0.015-0.024C35,57,35.664,60.91,39.014,64.045l1.323,6.725l-16.882,6.059c-5.368,1.9-8.955,6.977-8.955,12.671h71C85.5,83.806,81.912,78.729,76.545,76.828z"/><path fill="#40396e" d="M50.192,67.009c4.833,0,9.284-2.582,9.284-2.582s-2.223,6.582-9.284,6.582c-7.005,0-9.732-6.654-9.732-6.654S45.359,67.009,50.192,67.009z" opacity=".35"/><path fill="#d9eeff" d="M76.545,76.828l-16.648-5.46c-0.335,2.46-5.197,5.912-10.02,5.891c-4.741-0.021-9.444-3.472-9.774-5.891l-16.648,5.46C18.087,78.729,14.5,83.806,14.5,89.5h71C85.5,83.806,81.912,78.729,76.545,76.828z"/><path fill="#40396e" d="M85.5,91h-71c-0.829,0-1.5-0.672-1.5-1.5c0-6.318,4-11.979,9.955-14.085L38,69.488v-3.37c-4.555-4.811-5.672-10.079-5.932-12.825c-1.357,0.054-3.151-0.276-4.647-1.988c-2.343-2.685-3.373-8.103-1.235-10.602c0.64-0.748,1.881-1.507,3.374-1.456C29.205,37.189,29,35.479,29,33.448c0-12.418,8.832-21.431,21-21.431s21,9.013,21,21.43c0,2.031-0.205,3.739-0.56,5.797c1.479-0.043,2.747,0.707,3.39,1.458c2.139,2.5,1.108,7.918-1.235,10.602c-1.499,1.716-3.314,2.041-4.664,1.988c-0.26,2.749-1.378,8.017-5.932,12.825v3.37l15.095,5.945C83,77.523,87,83.185,87,89.5C87,90.328,86.329,91,85.5,91z M16.095,88h67.811c-0.562-4.427-3.58-8.241-7.861-9.758L59.95,71.904C59.377,71.679,59,71.125,59,70.509v-5c0-0.397,0.158-0.778,0.438-1.06c5.69-5.698,5.593-12.145,5.563-12.861c-0.027-0.639,0.354-1.24,0.949-1.475c0.355-0.14,0.753-0.14,1.108,0.004c0.187,0.069,1.983,0.693,3.277-0.788c1.771-2.026,2.054-5.695,1.215-6.676c-0.009-0.011-0.859-0.936-2.144,0.04c-0.496,0.376-1.17,0.407-1.697,0.081c-0.528-0.327-0.8-0.946-0.684-1.557C67.648,37.956,68,35.986,68,33.447c0-10.679-7.57-18.43-18-18.43s-18,7.751-18,18.431c0,2.539,0.352,4.509,0.974,7.771c0.116,0.61-0.156,1.229-0.684,1.557s-1.203,0.295-1.697-0.081c-1.296-0.983-2.118-0.052-2.126-0.042c-0.84,0.981-0.556,4.651,1.214,6.679c1.292,1.478,3.073,0.858,3.271,0.782c0.35-0.132,0.751-0.137,1.097,0.001c0.595,0.234,0.976,0.836,0.949,1.475c-0.03,0.717-0.126,7.163,5.563,12.861C40.842,64.731,41,65.112,41,65.51v5c0,0.616-0.377,1.17-0.95,1.396l-16.045,6.319C19.679,79.756,16.657,83.572,16.095,88z"/><path fill="#40396e" d="M40.079,25c5.528,0,14.313,0,19.841,0c2.777,0,4.856,2.207,5.174,4.966C66.203,39.577,67.088,42,67.088,42h5.832c-0.07-0.114-0.145-0.224-0.229-0.321c-0.6-0.701-2.238-1.52-4.112-0.096c0.631-3.311,0.921-5.472,0.921-8.134c0-12.112-8.716-19.93-19.5-19.93s-19.5,7.818-19.5,19.93c0,2.662,0.29,4.823,0.921,8.134c-1.874-1.424-3.495-0.605-4.095,0.096c-0.084,0.098-0.158,0.207-0.229,0.321h5.813c0,0,0.907-2.242,1.995-12.034C35.212,27.206,37.302,25,40.079,25z"/><path fill="#40396e" d="M61.69,21.27c-0.25,1.62-0.87,3.07-1.76,4.36C53.65,34.79,33.81,36,33.81,36c-2.11,0.53-4.27,3.25-4.27,3.25c-3.61-12.78-0.23-19.91,4-23.83l2.01,7.47c0.22,0.8,1.04,1.28,1.84,1.06s1.27-1.04,1.06-1.84l-2.34-8.66c2.07-1.32,4.07-2.01,5.31-2.34c4.01-1.08,16.25-3.03,19.6,3.76C61.82,16.47,62.12,18.56,61.69,21.27z"/><path fill="#40396e" d="M70.4,39.35L66.21,36c-4.11-5.05-5.68-8.44-6.28-10.37c-0.42-1.36-0.36-2-0.36-2l1.2-8.84c0.08,0.02,0.17,0.05,0.25,0.08c0.81,0.23,1.56,0.5,2.26,0.81c1.01,0.43,1.91,0.93,2.71,1.48C76.13,24.13,70.4,39.35,70.4,39.35z"/><polygon fill="#d9eeff" points="40.188,71.838 46,88 54,88 59.77,71.831 50,75.893"/><path fill="#d9eeff" d="M63,21.5c0,0-5-1.5-13-1.5s-13,1.5-13,1.5L34,10l16-4l16,4L63,21.5z"/><path fill="#40396e" d="M67.95,9.89l-1.96,7.27l-1.54,5.73C64.27,23.56,63.66,24,63,24c-0.13,0-0.26-0.02-0.39-0.05c-0.8-0.22-1.27-1.04-1.06-1.84l1.73-6.43l1.42-5.25C62.35,9.62,56.81,8,50,8c-6.84,0-12.36,1.61-14.7,2.43l0.81,3.02l2.34,8.66c0.21,0.8-0.26,1.62-1.06,1.84C37.26,23.99,37.13,24,37,24c-0.66,0-1.27-0.44-1.45-1.11l-2.01-7.47l-1.49-5.53c-0.19-0.72,0.17-1.47,0.86-1.77C33.21,7.99,40.3,5,50,5s16.79,2.99,17.09,3.12C67.78,8.42,68.14,9.17,67.95,9.89z"/><rect width="8" height="2" x="46" y="13" fill="#f4665c"/><rect width="2" height="8" x="49" y="10" fill="#f4665c"/></svg>
