<svg xmlns="http://www.w3.org/2000/svg" viewBox="0 0 100 100"><path d="M51,96c-3.346,0-6.611-1.07-9.312-3H14C7.383,93,2,87.617,2,81V33 c0-4.044,1.966-7.623,5.041-9.797H94.96C98.034,25.377,100,28.956,100,33v48c0,6.617-5.383,12-12,12H60.312 C57.611,94.93,54.346,96,51,96z" opacity=".35"/><path fill="#f2f2f2" d="M49,94c-3.347,0-6.611-1.07-9.313-3H12C5.383,91,0,85.617,0,79V31c0-4.044,1.967-7.623,5.041-9.797 c0.302-2.96,2.264-5.578,5.073-6.665C12.26,13.708,20.037,11,30,11c8.747,0,15.461,1.536,19,2.575C52.539,12.536,59.253,11,68,11 c9.963,0,17.74,2.708,19.886,3.539c2.81,1.087,4.771,3.704,5.073,6.665C96.033,23.377,98,26.956,98,31v48c0,6.617-5.383,12-12,12 H58.312C55.611,92.93,52.347,94,49,94z"/><path fill="#d84178" d="M86.5,25.525V22c0-0.62-0.381-1.175-0.959-1.399C83.661,19.874,76.838,17.5,68,17.5 c-8.112,0-15.156,1.52-19,2.902C45.156,19.02,38.112,17.5,30,17.5c-8.838,0-15.661,2.374-17.541,3.101 C11.881,20.825,11.5,21.38,11.5,22v3.525c-2.799,0.254-5,2.611-5,5.475v48c0,3.033,2.467,5.5,5.5,5.5h30.079 c1.734,1.841,4.191,3,6.921,3s5.186-1.159,6.921-3H86c3.033,0,5.5-2.467,5.5-5.5V31C91.5,28.136,89.299,25.779,86.5,25.525z"/><circle cx="49" cy="78" r="4" fill="#88265a"/><rect width="72" height="5" x="13" y="73" fill="#70bfff"/><path fill="#bde2ff" d="M49,78c-3.867-1.495-10.617-3.144-19-3c-7.495,0.129-13.295,1.567-17,3V20.5c3.705-1.433,10-3,17-3 c8,0,15.133,1.505,19,3V78z"/><path fill="#9fd4ff" d="M49,20.5c3.867-1.495,11-3,19-3c7,0,13.295,1.567,17,3V78c-3.705-1.433-9.505-2.871-17-3 c-8.383-0.144-15.133,1.505-19,3V20.5z"/><path fill="#40396e" d="M49,89c-2.793,0-5.505-1.086-7.541-3H12c-3.859,0-7-3.14-7-7V31c0-3.112,2.108-5.83,5-6.704V22 c0-1.23,0.771-2.354,1.918-2.798C13.859,18.451,20.903,16,30,16c7.915,0,14.896,1.421,19,2.813C53.104,17.421,60.085,16,68,16 c9.097,0,16.141,2.451,18.082,3.202C87.229,19.646,88,20.77,88,22v2.296c2.892,0.874,5,3.592,5,6.704v48c0,3.86-3.141,7-7,7H56.541 C54.505,87.914,51.793,89,49,89z M30,19c-8.577,0-15.181,2.296-17,3v3.525c0,0.776-0.592,1.424-1.364,1.494 C9.597,27.204,8,28.953,8,31v48c0,2.206,1.794,4,4,4h30.079c0.413,0,0.809,0.17,1.092,0.472C44.707,85.102,46.777,86,49,86 s4.293-0.898,5.829-2.528C55.112,83.17,55.508,83,55.921,83H86c2.206,0,4-1.794,4-4V31c0-2.047-1.597-3.796-3.636-3.981 C85.592,26.949,85,26.301,85,25.525V22c-1.819-0.704-8.423-3-17-3c-7.865,0-14.71,1.454-18.492,2.814 c-0.328,0.118-0.688,0.118-1.016,0C44.71,20.454,37.865,19,30,19z"/></svg>
