<svg xmlns="http://www.w3.org/2000/svg" viewBox="0 0 100 100"><path d="M19.5,95C13.71,95,9,90.29,9,84.5v-41C9,37.71,13.71,33,19.5,33h0.89C22.798,17.722,36.056,6,52,6	s29.202,11.722,31.61,27h0.89C90.29,33,95,37.71,95,43.5v41C95,90.29,90.29,95,84.5,95H19.5z" opacity=".35"/><path fill="#f2f2f2" d="M17.5,93C11.71,93,7,88.29,7,82.5v-41C7,35.71,11.71,31,17.5,31h0.89C20.798,15.722,34.056,4,50,4	s29.202,11.722,31.61,27h0.89C88.29,31,93,35.71,93,41.5v41C93,88.29,88.29,93,82.5,93H17.5z"/><path fill="#9aa2e6" d="M82.5,37.5h-7V36c0-14.083-11.417-25.5-25.5-25.5S24.5,21.917,24.5,36v1.5h-7c-2.209,0-4,1.791-4,4	v41c0,2.209,1.791,4,4,4h65c2.209,0,4-1.791,4-4v-41C86.5,39.291,84.709,37.5,82.5,37.5z M31.5,36c0-10.201,8.299-18.5,18.5-18.5	S68.5,25.799,68.5,36v1.5h-37V36z"/><path fill="#ffc571" d="M82.5,87h-65c-2.209,0-4-1.791-4-4V43c0-2.209,1.791-4,4-4h65c2.209,0,4,1.791,4,4v40	C86.5,85.209,84.709,87,82.5,87z"/><path fill="#40396e" d="M82.5,88h-65c-3.032,0-5.5-2.468-5.5-5.5v-41c0-3.032,2.468-5.5,5.5-5.5H23C23,21.112,35.112,9,50,9	s27,12.112,27,27h5.5c3.032,0,5.5,2.468,5.5,5.5v41C88,85.532,85.532,88,82.5,88z M17.5,39c-1.379,0-2.5,1.121-2.5,2.5v41	c0,1.379,1.121,2.5,2.5,2.5h65c1.379,0,2.5-1.121,2.5-2.5v-41c0-1.379-1.121-2.5-2.5-2.5h-7c-0.828,0-1.5-0.672-1.5-1.5V36	c0-13.233-10.767-24-24-24S26,22.767,26,36v1.5c0,0.828-0.672,1.5-1.5,1.5H17.5z M68.5,39h-37c-0.828,0-1.5-0.672-1.5-1.5V36	c0-11.028,8.972-20,20-20s20,8.972,20,20v1.5C70,38.328,69.328,39,68.5,39z M33,36h34c0-9.374-7.626-17-17-17S33,26.626,33,36z"/><circle cx="50" cy="62" r="10" fill="#70bfff"/><circle cx="50" cy="62" r="5" fill="#40396e"/><circle cx="53" cy="59" r="2" fill="#f2f2f2"/></svg>
