<svg xmlns="http://www.w3.org/2000/svg" viewBox="0 0 100 100"><path fill="#a6a6a6" d="M99.191,55.36L87.318,33.84c1.03-1.151,1.661-2.669,1.661-4.34c0-3.59-2.93-6.5-6.52-6.5 c-6.307,0-12.488-2.422-17.875-7.006c-0.674-0.574-1.392-1.085-2.128-1.565L51,6c-5.374,0-9.934,3.551-11.457,8.429 c-0.736,0.48-1.453,0.991-2.128,1.565C32.028,20.578,25.847,23,19.5,23c-3.59,0-6.479,2.91-6.479,6.5 c0,1.664,0.635,3.177,1.668,4.327L2.809,55.36C2.278,56.322,2,57.402,2,58.5C2,70.907,12.094,81,24.5,81 c2.954,0,5.774-0.578,8.361-1.617C30.509,81.31,29,84.23,29,87.5v2c0,3.59,2.91,6.5,6.5,6.5h31c3.59,0,6.5-2.91,6.5-6.5v-2 c0-3.27-1.509-6.19-3.861-8.117C71.726,80.422,74.546,81,77.5,81C89.906,81,100,70.907,100,58.5 C100,57.402,99.722,56.322,99.191,55.36z"/><path fill="#f2f2f2" d="M97.191,53.36L85.318,31.84c1.03-1.151,1.661-2.669,1.661-4.34c0-3.59-2.93-6.5-6.52-6.5 c-6.307,0-12.488-2.422-17.875-7.006c-0.674-0.574-1.392-1.085-2.128-1.565C58.934,7.551,54.374,4,49,4s-9.934,3.551-11.457,8.429 c-0.736,0.48-1.453,0.991-2.128,1.565C30.028,18.578,23.847,21,17.5,21c-3.59,0-6.479,2.91-6.479,6.5 c0,1.664,0.635,3.177,1.668,4.327L0.809,53.36C0.278,54.322,0,55.402,0,56.5C0,68.907,10.094,79,22.5,79 c2.954,0,5.774-0.578,8.361-1.617C28.509,79.31,27,82.23,27,85.5v2c0,3.59,2.91,6.5,6.5,6.5h31c3.59,0,6.5-2.91,6.5-6.5v-2 c0-3.27-1.509-6.19-3.861-8.117C69.726,78.422,72.546,79,75.5,79C87.906,79,98,68.907,98,56.5C98,55.402,97.722,54.322,97.191,53.36 z"/><path fill="none" stroke="#40396e" stroke-linecap="round" stroke-miterlimit="10" stroke-width="3" d="M80.5,27.5h-0.04 c-8.171,0-15.864-3.26-22.088-8.555C55.848,16.796,52.577,15.5,49,15.5s-6.848,1.296-9.373,3.445 C33.404,24.24,25.711,27.5,17.54,27.5H17.5"/><path fill="#ef8630" d="M60.5,81.5h-2c0-2.209-1.791-4-4-4h-2V20.243c1.221-1.009,2-2.535,2-4.243c0-3.038-2.462-5.5-5.5-5.5 s-5.5,2.462-5.5,5.5c0,1.708,0.779,3.234,2,4.243V77.5h-2c-2.209,0-4,1.791-4,4h-2c-2.209,0-4,1.791-4,4v2h31v-2 C64.5,83.291,62.709,81.5,60.5,81.5z"/><path fill="#ffc571" d="M54.5,77.5h-2V79h-7v-1.5h-2c-2.209,0-4,1.791-4,4V83h19v-1.5C58.5,79.291,56.709,77.5,54.5,77.5z"/><path fill="#f9b84f" d="M60.5,81.5h-2V83h-19v-1.5h-2c-2.209,0-4,1.791-4,4v2h31v-2C64.5,83.291,62.709,81.5,60.5,81.5z"/><circle cx="49" cy="16" r="4" fill="#ffe385"/><path fill="#ffe385" d="M38.5,56.5c0,8.837-7.163,16-16,16s-16-7.163-16-16H38.5z"/><path fill="#ffe385" d="M91.5,56.5c0,8.837-7.163,16-16,16s-16-7.163-16-16H91.5z"/><path fill="none" stroke="#40396e" stroke-linecap="round" stroke-linejoin="round" stroke-miterlimit="10" stroke-width="3" d="M38.5,56.5c0,8.837-7.163,16-16,16s-16-7.163-16-16l16-29L38.5,56.5z"/><path fill="none" stroke="#40396e" stroke-linecap="round" stroke-linejoin="round" stroke-miterlimit="10" stroke-width="3" d="M91.5,56.5c0,8.837-7.163,16-16,16s-16-7.163-16-16l16-29L91.5,56.5z"/><path fill="none" stroke="#40396e" stroke-linecap="round" stroke-linejoin="round" stroke-miterlimit="10" stroke-width="3" d="M60.5,81.5h-2c0-2.209-1.791-4-4-4h-2V20.243c1.221-1.009,2-2.535,2-4.243c0-3.038-2.462-5.5-5.5-5.5s-5.5,2.462-5.5,5.5 c0,1.708,0.779,3.234,2,4.243V77.5h-2c-2.209,0-4,1.791-4,4h-2c-2.209,0-4,1.791-4,4v2h31v-2C64.5,83.291,62.709,81.5,60.5,81.5z"/><line x1="6.5" x2="38.5" y1="56.5" y2="56.5" fill="none" stroke="#40396e" stroke-linecap="round" stroke-linejoin="round" stroke-miterlimit="10" stroke-width="3"/><line x1="59.5" x2="91.5" y1="56.5" y2="56.5" fill="none" stroke="#40396e" stroke-linecap="round" stroke-linejoin="round" stroke-miterlimit="10" stroke-width="3"/></svg>
