<svg xmlns="http://www.w3.org/2000/svg" baseProfile="basic" viewBox="0 0 100 100"><path d="M28.5,95.0322266c-3.5839844,0-6.5-2.9160156-6.5-6.5V15.4677734c0-3.5839844,2.9160156-6.5,6.5-6.5h47 c3.5839844,0,6.5,2.9160156,6.5,6.5v73.0644531c0,3.5839844-2.9160156,6.5-6.5,6.5H28.5z" opacity=".35"/><path fill="#F2F2F2" d="M26.5,93.0322266c-3.5839844,0-6.5-2.9160156-6.5-6.5V13.4677734c0-3.5839844,2.9160156-6.5,6.5-6.5h47 c3.5839844,0,6.5,2.9160156,6.5,6.5v73.0644531c0,3.5839844-2.9160156,6.5-6.5,6.5H26.5z"/><rect width="47" height="73.064" x="26.5" y="13.468" fill="#9AA2E6"/><path fill="#40396E" d="M73.5,88.0322266h-47c-0.8286133,0-1.5-0.671875-1.5-1.5V13.4677734c0-0.828125,0.6713867-1.5,1.5-1.5h47 c0.8286133,0,1.5,0.671875,1.5,1.5v73.0644531C75,87.3603516,74.3286133,88.0322266,73.5,88.0322266z M28,85.0322266h44V14.9677734 H28V85.0322266z"/><rect width="32" height="8" x="34" y="23" fill="#707CC0"/><rect width="32" height="8" x="34" y="35" fill="#707CC0"/><rect width="32" height="8" x="34" y="47" fill="#707CC0"/><circle cx="50" cy="73" r="4" fill="#F2F2F2"/><circle cx="62" cy="39" r="2" fill="#96C362"/><circle cx="62" cy="51" r="2" fill="#96C362"/><g><circle cx="62" cy="27" r="2" fill="#96C362"/></g></svg>
