<svg xmlns="http://www.w3.org/2000/svg" viewBox="0 0 100 100"><path d="M76.518,10C71.11,10,64.383,13.282,61,17c-0.454-1.037-0.327-2.099-1-3c-2.712-3.632-5.685-6.628-10.583-6.956C48.295,6.371,47.003,6,45.672,6h-1.748c-2.896,0-5.46,1.034-7.368,2.776C34.647,7.034,32.084,6,29.188,6H27.44c-1.388,0-2.73,0.402-3.883,1.129c-4.414,0.494-8.128,2.522-10.595,5.827c-2.989,4.005-3.76,9.5-2.112,15.073l5.662,17.061C16.864,46.151,20.697,51.442,28,56l-0.847,10.622C27.153,82.805,40.941,97,56.66,97c16.009,0,30.052-14.195,30.052-30.378V44.369C91.774,40.892,95,34.883,95,28.5C95,18.299,86.709,10,76.518,10z" opacity=".35"/><path fill="#f2f2f2" d="M74.518,8c-5.408,0-10.281,2.336-13.663,6.055c-0.454-1.037-1.019-2.015-1.692-2.917c-2.712-3.632-6.847-5.766-11.746-6.094C46.295,4.371,45.003,4,43.672,4h-1.748c-2.896,0-5.46,1.034-7.368,2.776C32.647,5.034,30.084,4,27.188,4H25.44c-1.388,0-2.73,0.402-3.883,1.129c-4.414,0.494-8.128,2.522-10.595,5.827c-2.989,4.005-3.76,9.5-2.112,15.073l5.662,17.061c0.353,1.062,3.339,9.484,10.642,14.042v7.49C25.153,80.805,38.941,95,54.66,95c16.009,0,30.052-14.195,30.052-30.378V42.369C89.774,38.892,93,32.883,93,26.5C93,16.299,84.709,8,74.518,8z"/><path fill="#94cfff" d="M20.67,41.037l-5.612-16.9c-1.05-3.56-0.647-6.946,1.106-9.292c1.136-1.521,3.369-3.333,7.554-3.333h4.844v7h-4.844c-0.974,0-1.702,0.196-1.947,0.523c-0.314,0.42-0.45,1.557-0.015,3.068l5.556,16.727L20.67,41.037z"/><path fill="#94cfff" d="M49.618,41.037l-6.644-2.207l5.556-16.725c0.328-1.151,0.26-2.306-0.174-2.887c-0.443-0.593-1.484-0.718-2.278-0.718H41.05v-7h5.027c4.338,0,6.683,1.918,7.885,3.527c1.776,2.376,2.249,5.781,1.267,9.109l-0.035,0.112L49.618,41.037z"/><path fill="#f2f2f2" d="M27.363,19.5c2.483,0,4.196-1.729,4.196-4.5s-1.888-4.5-4.371-4.5H25.44c-0.483,0-0.874,0.448-0.874,1v7c0,0.552,0.391,1,0.874,1H27.363z"/><path fill="#2785bd" d="M54.66,87.999c-12.476,0-23.015-10.705-23.015-23.376V52.654h6.997v11.968c0,9.653,8.442,16.379,16.018,16.379c7.819,0,16.563-7.005,16.563-16.379V35.378h6.996v29.244C78.22,77.075,67.211,87.999,54.66,87.999z"/><ellipse cx="74.518" cy="26.5" fill="#94cfff" rx="11.489" ry="11.5"/><path fill="#2785bd" d="M74.518,23c2.202,0,3.993,1.794,3.993,4s-1.791,4-3.993,4c-2.202,0-3.993-1.794-3.993-4S72.316,23,74.518,23 M74.518,20c-3.862,0-6.993,3.134-6.993,7s3.131,7,6.993,7s6.993-3.134,6.993-7S78.38,20,74.518,20L74.518,20z"/><path fill="#2785bd" d="M35.144,53.504c-10.213,0-14.303-11.959-14.472-12.469l6.64-2.205c0.022,0.065,2.754,7.677,7.833,7.677c5.156,0,7.805-7.593,7.83-7.67l6.645,2.191C49.45,41.538,45.386,53.504,35.144,53.504z"/><path fill="#f2f2f2" d="M41.749,19.5c-2.483,0-4.196-1.729-4.196-4.5s1.888-4.5,4.371-4.5h1.748c0.483,0,0.874,0.448,0.874,1v7c0,0.552-0.391,1-0.874,1H41.749z"/><path fill="#40396e" d="M54.66,90c-13.058,0-24.513-11.859-24.513-25.377V54.073C22.514,51.092,19.386,41.917,19.25,41.51l-5.612-16.9c-1.201-4.063-0.713-7.932,1.324-10.661c1.324-1.773,3.882-3.883,8.572-3.936C23.968,9.398,24.66,9,25.439,9h1.749c3.401,0,5.87,2.523,5.87,6c0,3.532-2.342,6-5.695,6h-1.923c-0.765,0-1.449-0.388-1.884-0.987c-0.246,0.007-0.435,0.031-0.568,0.056c-0.027,0.299-0.015,0.851,0.206,1.618l5.539,16.669c0.014,0.039,2.49,6.65,6.412,6.65c4.006,0,6.394-6.6,6.417-6.667l5.55-16.708c0.226-0.799,0.108-1.406,0.038-1.529C47.142,20.125,46.805,20,46.077,20H45.57c-0.433,0.606-1.123,1-1.898,1h-1.923c-3.354,0-5.696-2.467-5.696-6c0-3.476,2.469-6,5.871-6h1.748c0.775,0,1.465,0.394,1.898,1h0.507c4.959,0,7.678,2.247,9.085,4.132c2.055,2.752,2.616,6.651,1.501,10.429l-0.042,0.136L51.04,41.503c-0.133,0.404-3.247,9.594-10.9,12.574v10.545C40.14,73.424,47.806,80,54.66,80c6.967,0,15.065-6.717,15.065-15.378V39.605c-5.1-1.993-8.696-7.322-8.696-13.105c0-7.443,6.05-13.5,13.488-13.5s13.487,6.056,13.487,13.5c0,5.584-3.427,10.85-8.288,12.946v25.176C79.717,78.141,68.008,90,54.66,90z M23.718,13.011c-3.564,0-5.421,1.486-6.352,2.732c-1.466,1.964-1.782,4.87-0.867,7.97l5.596,16.852c0.121,0.363,3.055,8.95,9.978,11.001c0.636,0.188,1.073,0.773,1.073,1.438v11.618C33.146,76.543,43.2,87,54.66,87c11.545,0,22.059-10.666,22.059-22.378V38.411c0-0.649,0.418-1.226,1.036-1.426c4.202-1.364,7.252-5.774,7.252-10.485c0-5.79-4.706-10.5-10.489-10.5s-10.489,4.71-10.489,10.5c0,4.798,3.27,9.35,7.608,10.589c0.644,0.184,1.087,0.772,1.087,1.441v26.091C72.724,74.972,63.014,83,54.66,83c-8.27,0-17.52-7.859-17.52-18.377V53.006c0-0.665,0.438-1.25,1.075-1.438c6.949-2.051,9.857-10.643,9.977-11.007l5.602-16.871c0.842-2.854,0.458-5.764-1.035-7.763C51.763,14.591,49.794,13,46.077,13h-1.531c-0.653,0-1.208-0.417-1.414-1h-1.208c-1.771,0-2.872,1.149-2.872,3c0,1.879,1.008,3,2.697,3h1.383c0.206-0.583,0.761-1,1.414-1h1.531c1.657,0,2.829,0.445,3.484,1.323c0.718,0.962,0.876,2.568,0.414,4.191l-5.573,16.782c-0.122,0.362-3.011,8.708-9.259,8.708c-6.176,0-9.221-8.599-9.251-8.686L20.33,22.575c-0.543-1.882-0.449-3.519,0.235-4.436c0.56-0.748,1.62-1.127,3.153-1.127h0.85c0.648,0,1.201,0.412,1.41,0.989h1.385c1.688,0,2.696-1.122,2.696-3c0-1.851-1.1-3-2.871-3H25.98c-0.205,0.586-0.761,1.011-1.415,1.011H23.718z M23.031,19.83L23.031,19.83L23.031,19.83z"/></svg>
