<svg xmlns="http://www.w3.org/2000/svg" viewBox="0 0 100 100"><path d="M12.163,93c-2.315,0-4.473-1.246-5.63-3.251c-1.158-2.001-1.158-4.496,0.004-6.504L46.371,14.25 C47.527,12.246,49.685,11,52,11s4.473,1.246,5.63,3.251L97.466,83.25c1.159,2.002,1.159,4.498-0.003,6.505 C96.31,91.754,94.152,93,91.837,93H12.163z" opacity=".35"/><path fill="#f2f2f2" d="M10.163,91c-2.315,0-4.473-1.246-5.63-3.251c-1.158-2.001-1.158-4.496,0.004-6.504L44.371,12.25 C45.527,10.246,47.685,9,50,9s4.473,1.246,5.63,3.251L95.466,81.25c1.159,2.002,1.159,4.498-0.003,6.505 C94.31,89.754,92.152,91,89.837,91H10.163z"/><polygon fill="#f9b84f" points="50,15.5 10.163,84.5 89.837,84.5"/><path fill="#40396e" d="M89.837,86H10.163c-0.536,0-1.031-0.286-1.299-0.75c-0.269-0.464-0.269-1.036,0-1.5l39.837-69 C48.969,14.286,49.464,14,50,14s1.031,0.286,1.299,0.75l39.837,69c0.269,0.464,0.269,1.036,0,1.5 C90.868,85.714,90.373,86,89.837,86z M12.761,83h74.479L50,18.5L12.761,83z"/><g><path fill="#40396e" d="M50.045,75.119c-1.201,0-2.152-0.36-2.857-1.08s-1.057-1.649-1.057-2.79 c0-1.109,0.352-2.017,1.057-2.723c0.705-0.705,1.656-1.057,2.857-1.057c1.199,0,2.137,0.353,2.812,1.057 c0.676,0.706,1.012,1.613,1.012,2.723c0,1.141-0.336,2.07-1.012,2.79S51.244,75.119,50.045,75.119z M50.045,65.128 c-1.41,0-2.189-0.825-2.34-2.475l-1.439-15.39c-0.15-1.32,0.111-2.4,0.787-3.24c0.674-0.839,1.672-1.26,2.992-1.26 c1.289,0,2.266,0.42,2.926,1.26c0.658,0.84,0.914,1.92,0.764,3.24l-1.439,15.39C52.115,64.304,51.365,65.128,50.045,65.128z"/></g></svg>
