<svg xmlns="http://www.w3.org/2000/svg" viewBox="0 0 64 64"><linearGradient id="lXZYvbX1pv_Xyolzuiia4a" x1="29.525" x2="29.525" y1="28.447" y2="36.349" gradientUnits="userSpaceOnUse"><stop offset="0" stop-color="#6dc7ff"/><stop offset="1" stop-color="#e6abff"/></linearGradient><path fill="url(#lXZYvbX1pv_Xyolzuiia4a)" d="M34.121,35.536l-3.536,3.536c-0.391,0.391-1.024,0.391-1.414,0l-4.243-4.243 c-0.391-0.391-0.391-1.024,0-1.414l3.536-3.536c0.391-0.391,1.024-0.391,1.414,0l4.243,4.243 C34.512,34.512,34.512,35.145,34.121,35.536z"/><g><linearGradient id="lXZYvbX1pv_Xyolzuiia4b" x1="32" x2="32" y1="2.489" y2="58.467" gradientUnits="userSpaceOnUse"><stop offset="0" stop-color="#1a6dff"/><stop offset="1" stop-color="#c822ff"/></linearGradient><path fill="url(#lXZYvbX1pv_Xyolzuiia4b)" d="M53.92,10.08c-5.07-5.069-13.317-5.068-18.385,0L10.08,35.536 c-5.068,5.068-5.068,13.316,0,18.385c2.535,2.534,5.864,3.801,9.192,3.801c3.329,0,6.658-1.267,9.192-3.801L53.92,28.464 C58.989,23.396,58.989,15.148,53.92,10.08z M52.506,27.05L27.05,52.506c-4.288,4.289-11.267,4.289-15.557,0 c-4.289-4.289-4.289-11.268,0-15.557L36.95,11.494c2.145-2.145,4.961-3.216,7.778-3.216c2.816,0,5.634,1.072,7.778,3.216 C56.795,15.783,56.795,22.762,52.506,27.05z"/><path fill="url(#lXZYvbX1pv_Xyolzuiia4b)" d="M36.95,19.979c-1.171-1.17-3.074-1.17-4.243,0L20.687,32c-1.17,1.169-1.17,3.073,0,4.243 l7.071,7.071c0.585,0.585,1.353,0.877,2.121,0.877c0.769,0,1.537-0.292,2.122-0.877l12.021-12.021c1.17-1.169,1.17-3.073,0-4.243 L36.95,19.979z M42.606,29.879L30.586,41.899c-0.39,0.39-1.025,0.389-1.415,0l-7.071-7.071c-0.39-0.39-0.39-1.024,0-1.415 l12.021-12.021c0.195-0.195,0.451-0.292,0.707-0.292c0.256,0,0.513,0.098,0.708,0.292l7.071,7.071 C42.996,28.854,42.996,29.489,42.606,29.879z"/></g></svg>
