<svg xmlns="http://www.w3.org/2000/svg" viewBox="0 0 64 64"><linearGradient id="QJS9AekiFDqd29F2Otn7~a" x1="32" x2="32" y1="49.667" y2="56.882" gradientUnits="userSpaceOnUse" spreadMethod="reflect"><stop offset="0" stop-color="#6dc7ff"/><stop offset="1" stop-color="#e6abff"/></linearGradient><path fill="url(#QJS9AekiFDqd29F2Otn7~a)" d="M36 56L28 56 28 53 32 51 36 53z"/><linearGradient id="QJS9AekiFDqd29F2Otn7~b" x1="32" x2="32" y1="5.167" y2="59.516" gradientUnits="userSpaceOnUse" spreadMethod="reflect"><stop offset="0" stop-color="#1a6dff"/><stop offset="1" stop-color="#c822ff"/></linearGradient><path fill="url(#QJS9AekiFDqd29F2Otn7~b)" d="M52,14h-4v-3c0-2.757-2.243-5-5-5h-7c-1.641,0-3.088,0.806-4,2.031 C31.088,6.806,29.641,6,28,6h-7c-2.757,0-5,2.243-5,5v3h-4c-2.757,0-5,2.243-5,5v10c0,2.486,1.829,4.538,4.209,4.92 C11.079,34.256,11,34.618,11,35v10c0,2.757,2.243,5,5,5h1.101c0.465,2.279,2.484,4,4.899,4h4v1c0,1.654,1.346,3,3,3h6 c1.654,0,3-1.346,3-3v-1h4c2.414,0,4.434-1.721,4.899-4H48c2.757,0,5-2.243,5-5V35c0-0.382-0.079-0.744-0.209-1.08 C55.171,33.538,57,31.486,57,29V19C57,16.243,54.757,14,52,14z M36,55c0,0.552-0.449,1-1,1h-6c-0.551,0-1-0.448-1-1v-1 c1.641,0,3.088-0.806,4-2.031C32.912,53.194,34.359,54,36,54V55z M55,29c0,1.654-1.346,3-3,3h-2h-3h-1v2h1h3c0.551,0,1,0.448,1,1v10 c0,1.654-1.346,3-3,3h-4c-0.551,0-1-0.448-1-1v-3h-2v3c0,1.654,1.346,3,3,3h0.816c-0.414,1.162-1.514,2-2.816,2h-6 c-1.654,0-3-1.346-3-3v-1h-2v1c0,1.654-1.346,3-3,3h-6c-1.302,0-2.402-0.838-2.816-2H20c1.654,0,3-1.346,3-3v-3h-2v3 c0,0.552-0.449,1-1,1h-4c-1.654,0-3-1.346-3-3V35c0-0.552,0.449-1,1-1h2h2v-2h-2h-2h-2c-1.654,0-3-1.346-3-3V19c0-1.654,1.346-3,3-3 h5c0.551,0,1,0.448,1,1v3h2v-3c0-1.302-0.839-2.401-2-2.816V11c0-1.654,1.346-3,3-3h7c1.654,0,3,1.346,3,3v7v2c0,1.654-1.346,3-3,3 h-3v2h3c1.13,0,2.162-0.391,3-1.025V37c0,1.654-1.346,3-3,3h-3v2h3c1.641,0,3.088-0.806,4-2.031C32.912,41.194,34.359,42,36,42h3v-2 h-3c-1.654,0-3-1.346-3-3V23.975C33.838,24.609,34.87,25,36,25h3v-2h-3c-1.654,0-3-1.346-3-3v-2v-7c0-1.654,1.346-3,3-3h7 c1.654,0,3,1.346,3,3v3.184c-1.161,0.415-2,1.514-2,2.816v3h2v-3c0-0.552,0.449-1,1-1h5c1.654,0,3,1.346,3,3V29z"/></svg>
