<svg xmlns="http://www.w3.org/2000/svg" viewBox="0 0 64 64"><linearGradient id="_syrrhBu4q5lsswqep1ika" x1="10.5" x2="10.5" y1="45" y2="48.404" gradientUnits="userSpaceOnUse"><stop offset="0" stop-color="#6dc7ff"/><stop offset="1" stop-color="#e6abff"/></linearGradient><path fill="url(#_syrrhBu4q5lsswqep1ika)" d="M8,48v-3h4c0.55,0,1,0.45,1,1v2c0,0.55-0.45,1-1,1H9C8.448,49,8,48.552,8,48z"/><linearGradient id="_syrrhBu4q5lsswqep1ikb" x1="32" x2="32" y1="12.277" y2="51.514" gradientUnits="userSpaceOnUse"><stop offset="0" stop-color="#1a6dff"/><stop offset="1" stop-color="#c822ff"/></linearGradient><rect width="2" height="4" x="31" y="33" fill="url(#_syrrhBu4q5lsswqep1ikb)"/><rect width="2" height="4" x="31" y="39" fill="url(#_syrrhBu4q5lsswqep1ikb)"/><rect width="2" height="4" x="31" y="45" fill="url(#_syrrhBu4q5lsswqep1ikb)"/><linearGradient id="_syrrhBu4q5lsswqep1ike" x1="31.999" x2="31.999" y1="12.277" y2="51.514" gradientUnits="userSpaceOnUse"><stop offset="0" stop-color="#1a6dff"/><stop offset="1" stop-color="#c822ff"/></linearGradient><path fill="url(#_syrrhBu4q5lsswqep1ike)" d="M55.958,23.725C55.205,23.215,54.289,23,53.38,23l-23.512,0 c-0.617,0-0.859-0.469-0.918-0.613c-0.063-0.145-0.223-0.648,0.215-1.086l2.355-2.355c1.797-1.797,1.934-4.621,0.309-6.43 c-1.101-1.223-2.743-1.767-4.428-1.401c-0.888,0.193-1.679,0.699-2.321,1.342L14.535,23H9c-1.65,0-3,1.35-3,3v22 c0,1.657,1.343,3,3,3h3c0.305,0,0.594-0.074,0.855-0.199C13.758,52.145,15.289,53,16.984,53h17.818 c2.504,0,4.566-1.871,4.691-4.262c0.055-1.246-0.371-2.434-1.227-3.336c-0.145-0.148-0.309-0.273-0.473-0.402 c1.031-0.824,1.707-2.078,1.707-3.5s-0.676-2.676-1.707-3.5c1.031-0.824,1.707-2.078,1.707-3.5c0-0.926-0.281-1.5-0.762-2.5h14.561 c2.504,0,4.566-1.871,4.691-4.258C58.077,26.138,57.342,24.661,55.958,23.725z M9,49c-0.55,0-1-0.45-1-1V26c0-0.55,0.45-1,1-1h3 v23.016C12,48.348,12.043,49,12.105,49H9z M53.301,30H35v2c1,0,2.5,1.121,2.5,2.5S36,37,35,37v2c1,0,2.5,1.121,2.5,2.5S36,44,35,44 v2c1,0,1.336,0.277,1.812,0.777c0.477,0.504,0.723,1.168,0.684,1.859C37.426,49.938,36.219,51,34.801,51H17.131 c-1.159,0-2.292-0.589-2.806-1.628C14.108,48.934,14,48.481,14,48.016V25h1.363l11.246-11.246c0.504-0.504,1.176-0.77,1.887-0.754 c0.711,0.02,1.367,0.324,1.848,0.855c0.898,0.996,0.789,2.648-0.238,3.676l-2.284,2.284c-0.728,0.728-1.119,1.774-0.896,2.779 C27.251,24.058,28.442,25,29.867,25h23.55c0.571,0,1.147,0.151,1.595,0.504c0.665,0.524,1.044,1.303,0.983,2.133 C55.926,28.938,54.719,30,53.301,30z"/><linearGradient id="_syrrhBu4q5lsswqep1ikf" x1="53" x2="53" y1="35.085" y2="46.028" gradientUnits="userSpaceOnUse"><stop offset="0" stop-color="#6dc7ff"/><stop offset="1" stop-color="#e6abff"/></linearGradient><path fill="url(#_syrrhBu4q5lsswqep1ikf)" d="M58,42.2c0,2.651-2.239,4.8-5,4.8s-5-2.149-5-4.8s5-7.2,5-7.2S58,39.549,58,42.2z"/></svg>
