<svg xmlns="http://www.w3.org/2000/svg" viewBox="0 0 100 100"><path d="M21.5,93C15.71,93,11,88.29,11,82.5V33.923 c0-3.924,2.161-7.49,5.64-9.307l30.5-15.93c1.493-0.78,3.174-1.192,4.861-1.192s3.368,0.413,4.862,1.193l30.499,15.929 C90.839,26.433,93,29.999,93,33.923V82.5C93,88.29,88.29,93,82.5,93H21.5z" opacity=".35"/><path fill="#f2f2f2" d="M19.5,91C13.71,91,9,86.29,9,80.5V31.923c0-3.924,2.161-7.49,5.64-9.307l30.5-15.93 c1.493-0.78,3.174-1.192,4.861-1.192s3.368,0.413,4.862,1.193l30.499,15.929C88.839,24.433,91,27.999,91,31.923V80.5 C91,86.29,86.29,91,80.5,91H19.5z"/><path fill="#dd4f2c" d="M47.808,13.001L17.69,29.643c-1.303,0.721-2.099,2.106-2.064,3.595l1.141,48.563 c0.052,2.208,1.884,3.957,4.093,3.905l60.983-1.432c2.208-0.052,3.957-1.884,3.905-4.093l-1.141-48.563 c-0.035-1.49-0.895-2.836-2.231-3.495l-30.866-15.21C50.337,12.336,48.953,12.368,47.808,13.001z"/><path fill="#40396e" d="M80.5,86h-61c-3.033,0-5.5-2.468-5.5-5.5V31.924c0-2.055,1.131-3.923,2.953-4.875l30.5-15.93 c1.595-0.834,3.499-0.834,5.094,0l30.5,15.929C84.869,28.001,86,29.869,86,31.924V80.5C86,83.532,83.533,86,80.5,86z M50,13.494 c-0.397,0-0.795,0.095-1.157,0.284c0,0,0,0,0,0l-30.5,15.93C17.515,30.14,17,30.99,17,31.924V80.5c0,1.379,1.122,2.5,2.5,2.5h61 c1.378,0,2.5-1.121,2.5-2.5V31.924c0-0.934-0.515-1.784-1.343-2.217l-30.5-15.929C50.795,13.588,50.397,13.494,50,13.494z M48.148,12.448h0.01H48.148z"/><line x1="30" x2="70" y1="50" y2="50" fill="none" stroke="#fff" stroke-linecap="round" stroke-linejoin="round" stroke-miterlimit="10" stroke-width="6"/><line x1="50" x2="50" y1="30" y2="70" fill="none" stroke="#fff" stroke-linecap="round" stroke-linejoin="round" stroke-miterlimit="10" stroke-width="6"/></svg>
