<svg xmlns="http://www.w3.org/2000/svg" viewBox="0 0 64 64"><linearGradient id="YSw3Fp7FkDZnz4rpjpu40a" x1="18" x2="18" y1="18.417" y2="24.835" gradientUnits="userSpaceOnUse" spreadMethod="reflect"><stop offset="0" stop-color="#6dc7ff"/><stop offset="1" stop-color="#e6abff"/></linearGradient><path fill="url(#YSw3Fp7FkDZnz4rpjpu40a)" d="M15,25v-5c0-0.552,0.448-1,1-1h5L15,25z"/><linearGradient id="YSw3Fp7FkDZnz4rpjpu40b" x1="32" x2="32" y1="10.167" y2="53.865" gradientUnits="userSpaceOnUse" spreadMethod="reflect"><stop offset="0" stop-color="#1a6dff"/><stop offset="1" stop-color="#c822ff"/></linearGradient><path fill="url(#YSw3Fp7FkDZnz4rpjpu40b)" d="M59,45h-2V16c0-2.757-2.243-5-5-5H12c-2.757,0-5,2.243-5,5v29H5c-1.103,0-2,0.897-2,2v1 c0,2.757,2.243,5,5,5h48c2.757,0,5-2.243,5-5v-1C61,45.897,60.103,45,59,45z M9,16c0-1.654,1.346-3,3-3h40c1.654,0,3,1.346,3,3v29 H39.618c-0.765,0-1.45,0.425-1.788,1.105L37.382,47l-10.765-0.002l-0.445-0.89C25.832,45.425,25.146,45,24.382,45H9V16z M59,48 c0,1.654-1.346,3-3,3H8c-1.654,0-3-1.346-3-3v-1l19.383,0.002l0.445,0.89c0.34,0.684,1.025,1.108,1.79,1.108h10.764 c0.765,0,1.45-0.425,1.788-1.105L39.618,47H59V48z"/><linearGradient id="YSw3Fp7FkDZnz4rpjpu40c" x1="32" x2="32" y1="10.167" y2="53.865" gradientUnits="userSpaceOnUse" spreadMethod="reflect"><stop offset="0" stop-color="#1a6dff"/><stop offset="1" stop-color="#c822ff"/></linearGradient><path fill="url(#YSw3Fp7FkDZnz4rpjpu40c)" d="M53,18c0-1.654-1.346-3-3-3H14c-1.654,0-3,1.346-3,3v25h42V18z M51,41H13V18 c0-0.552,0.448-1,1-1h36c0.552,0,1,0.448,1,1V41z"/><linearGradient id="YSw3Fp7FkDZnz4rpjpu40d" x1="32" x2="32" y1="10.167" y2="53.865" gradientUnits="userSpaceOnUse" spreadMethod="reflect"><stop offset="0" stop-color="#1a6dff"/><stop offset="1" stop-color="#c822ff"/></linearGradient><path fill="url(#YSw3Fp7FkDZnz4rpjpu40d)" d="M38,22H26c-1.103,0-2,0.897-2,2v10c0,1.103,0.897,2,2,2h12c1.103,0,2-0.897,2-2V24 C40,22.897,39.103,22,38,22z M38,34H26V24h12V34z"/><linearGradient id="YSw3Fp7FkDZnz4rpjpu40e" x1="32" x2="32" y1="10.167" y2="53.865" gradientUnits="userSpaceOnUse" spreadMethod="reflect"><stop offset="0" stop-color="#1a6dff"/><stop offset="1" stop-color="#c822ff"/></linearGradient><path fill="url(#YSw3Fp7FkDZnz4rpjpu40e)" d="M28 26H36V28H28z"/><linearGradient id="YSw3Fp7FkDZnz4rpjpu40f" x1="32" x2="32" y1="10.167" y2="53.865" gradientUnits="userSpaceOnUse" spreadMethod="reflect"><stop offset="0" stop-color="#1a6dff"/><stop offset="1" stop-color="#c822ff"/></linearGradient><path fill="url(#YSw3Fp7FkDZnz4rpjpu40f)" d="M28 30H36V32H28z"/></svg>
