<svg xmlns="http://www.w3.org/2000/svg" viewBox="0 0 100 100"><path d="M78.07,10.149C76.901,8.207,74.767,7,72.5,7H50c-2.646,0-5.005,1.581-6.013,4.028L25.484,56.042c-0.821,2.008-0.591,4.282,0.614,6.079c1.208,1.807,3.228,2.885,5.401,2.885h9.385l-10.421,26.09c-1.195,2.995-0.049,6.361,2.732,8.008c0.999,0.591,2.142,0.902,3.303,0.902c1.955,0,3.788-0.867,5.027-2.379l41.002-50.001c1.583-1.933,1.915-4.641,0.847-6.899C82.307,38.466,80,37.006,77.5,37.006H67.346l10.894-20.454C79.304,14.549,79.24,12.098,78.07,10.149z" opacity=".35"/><path fill="#f2f2f2" d="M76.07,8.149C74.901,6.207,72.767,5,70.5,5H48c-2.646,0-5.005,1.581-6.013,4.028L23.484,54.042c-0.821,2.008-0.591,4.282,0.614,6.079c1.208,1.807,3.228,2.885,5.401,2.885h9.385l-10.421,26.09c-1.195,2.995-0.049,6.361,2.732,8.008c0.999,0.591,2.142,0.902,3.303,0.902c1.955,0,3.788-0.867,5.027-2.379l41.002-50.001c1.583-1.933,1.915-4.641,0.847-6.899C80.307,36.466,78,35.006,75.5,35.006H65.346l10.894-20.454C77.304,12.549,77.24,10.098,76.07,8.149z"/><polygon fill="#ffe385" points="75.5,41.505 54.52,41.505 70.5,11.5 48,11.5 29.5,56.505 48.48,56.505 34.5,91.505"/><path fill="#40396e" d="M34.499,93.006c-0.261,0-0.523-0.067-0.762-0.208c-0.637-0.377-0.904-1.161-0.63-1.849l13.158-32.943H29.5c-0.5,0-0.968-0.249-1.246-0.665c-0.278-0.415-0.331-0.942-0.142-1.405l18.5-45.006C46.844,10.367,47.392,10,48,10h22.5c0.526,0,1.015,0.276,1.286,0.728c0.271,0.452,0.285,1.013,0.038,1.478L57.018,40.006H75.5c0.58,0,1.107,0.334,1.355,0.858s0.172,1.145-0.195,1.593l-41,50C35.366,92.815,34.937,93.006,34.499,93.006z M31.738,55.006H48.48c0.498,0,0.963,0.247,1.242,0.659c0.278,0.411,0.335,0.936,0.15,1.397l-10.381,25.99L72.33,43.006H54.52c-0.526,0-1.015-0.276-1.286-0.728c-0.271-0.452-0.285-1.013-0.038-1.478L68.002,13H49.005L31.738,55.006z"/></svg>
