<svg xmlns="http://www.w3.org/2000/svg" viewBox="0 0 64 64"><linearGradient id="BfhcuB~~Vw_OFS2DCZ5VMa" x1="32" x2="32" y1="8.957" y2="26.354" gradientUnits="userSpaceOnUse"><stop offset="0" stop-color="#6dc7ff"/><stop offset="1" stop-color="#e6abff"/></linearGradient><polygon fill="url(#BfhcuB~~Vw_OFS2DCZ5VMa)" points="34,28 30,28 31,9 33,9"/><g><linearGradient id="BfhcuB~~Vw_OFS2DCZ5VMb" x1="18" x2="18" y1="7.085" y2="55.055" gradientUnits="userSpaceOnUse"><stop offset="0" stop-color="#1a6dff"/><stop offset="1" stop-color="#c822ff"/></linearGradient><path fill="url(#BfhcuB~~Vw_OFS2DCZ5VMb)" d="M18,51h-5v2h5c2.757,0,5-2.243,5-5h-2C21,49.654,19.654,51,18,51z"/><linearGradient id="BfhcuB~~Vw_OFS2DCZ5VMc" x1="32" x2="32" y1="7.085" y2="55.055" gradientUnits="userSpaceOnUse"><stop offset="0" stop-color="#1a6dff"/><stop offset="1" stop-color="#c822ff"/></linearGradient><path fill="url(#BfhcuB~~Vw_OFS2DCZ5VMc)" d="M41,22c-2.206,0-4,1.794-4,4v0.816c-1.161-0.414-2-1.514-2-2.816v-9.127V9 c0-1.103-0.897-2-2-2h-2c-1.103,0-2,0.897-2,2v5.873V23v1c0,1.302-0.839,2.402-2,2.816V26c0-2.206-1.794-4-4-4 c-9.374,0-17,7.626-17,17v11c0,3.86,3.14,7,7,7h7c3.86,0,7-3.14,7-7V29h10v21c0,3.86,3.14,7,7,7h7c3.86,0,7-3.14,7-7V39 C58,29.626,50.374,22,41,22z M31,14.873V9h2v5.873V24c0,1.13,0.391,2.162,1.026,3h-4.051C30.609,26.162,31,25.13,31,24v-1V14.873z M20,55h-7c-2.757,0-5-2.243-5-5V39c0-8.271,6.729-15,15-15c1.103,0,2,0.897,2,2v1.051c-5.046,0.503-9,4.773-9,9.949v0.17 c0,1.009-0.821,1.83-1.83,1.83H13v2h1.17c0.666,0,1.283-0.186,1.83-0.486V42c0,1.654-1.346,3-3,3h-3v2h3c2.757,0,5-2.243,5-5 v-0.026C18.838,42.609,19.87,43,21,43h2v-2h-2c-1.654,0-3-1.346-3-3v-1c0-4.072,3.06-7.436,7-7.931V50C25,52.757,22.757,55,20,55z M56,50c0,2.757-2.243,5-5,5h-7c-2.757,0-5-2.243-5-5V29.069c3.94,0.495,7,3.859,7,7.931v1c0,1.654-1.346,3-3,3h-2v2h2 c1.13,0,2.162-0.391,3-1.026V42c0,2.757,2.243,5,5,5h3v-2h-3c-1.654,0-3-1.346-3-3v-1.486c0.546,0.3,1.164,0.486,1.83,0.486H51v-2 h-1.17C48.821,39,48,38.179,48,37.17V37c0-5.177-3.954-9.446-9-9.949V26c0-1.103,0.897-2,2-2c8.271,0,15,6.729,15,15V50z"/><linearGradient id="BfhcuB~~Vw_OFS2DCZ5VMd" x1="46.5" x2="46.5" y1="7.085" y2="55.055" gradientUnits="userSpaceOnUse"><stop offset="0" stop-color="#1a6dff"/><stop offset="1" stop-color="#c822ff"/></linearGradient><path fill="url(#BfhcuB~~Vw_OFS2DCZ5VMd)" d="M43,48h-2c0,2.757,2.243,5,5,5h6v-2h-6C44.346,51,43,49.654,43,48z"/></g></svg>
