<svg xmlns="http://www.w3.org/2000/svg" baseProfile="basic" viewBox="0 0 100 100"><path d="M22.5,95c-3.584,0-6.5-2.916-6.5-6.5v-73c0-3.584,2.916-6.5,6.5-6.5h41c1.776,0,3.496,0.739,4.718,2.029l18.001,19C87.368,31.246,88,32.832,88,34.5v54c0,3.584-2.916,6.5-6.5,6.5H22.5z" opacity=".35"/><path fill="#f2f2f2" d="M20.5,93c-3.584,0-6.5-2.916-6.5-6.5v-73C14,9.916,16.916,7,20.5,7h41c1.776,0,3.496,0.739,4.718,2.029l18.001,19C85.368,29.246,86,30.832,86,32.5v54c0,3.584-2.916,6.5-6.5,6.5H20.5z"/><path fill="#d9eeff" d="M20,87V13h40l20,21v53H20z"/><path fill="#70bfff" d="M61,15v16c0,1.105,0.895,2,2,2h16l-1-2.653l-15-15.5L61,15z"/><path fill="#40396e" d="M79.5,73.989c-0.828,0-1.5-0.671-1.5-1.5V33.098L60.854,15H22v29.851c0,0.829-0.672,1.5-1.5,1.5s-1.5-0.671-1.5-1.5V13.5c0-0.829,0.672-1.5,1.5-1.5h41c0.412,0,0.806,0.169,1.089,0.468l18,19C80.853,31.747,81,32.116,81,32.5v39.989C81,73.318,80.328,73.989,79.5,73.989z"/><path fill="#40396e" d="M79.5,88h-59c-0.828,0-1.5-0.671-1.5-1.5V43.383c0-0.829,0.672-1.5,1.5-1.5s1.5,0.671,1.5,1.5V85h56V70.319c0-0.829,0.672-1.5,1.5-1.5s1.5,0.671,1.5,1.5V86.5C81,87.329,80.328,88,79.5,88z"/><path fill="#70bfff" d="M66.5,51.25h-33c-0.828,0-1.5-0.672-1.5-1.5c0-0.828,0.672-1.5,1.5-1.5h33c0.828,0,1.5,0.672,1.5,1.5C68,50.578,67.328,51.25,66.5,51.25z"/><path fill="#70bfff" d="M66.5,69.25h-33c-0.828,0-1.5-0.672-1.5-1.5c0-0.828,0.672-1.5,1.5-1.5h33c0.828,0,1.5,0.672,1.5,1.5C68,68.578,67.328,69.25,66.5,69.25z"/><path fill="#70bfff" d="M50.5,60.25h-17c-0.828,0-1.5-0.672-1.5-1.5c0-0.828,0.672-1.5,1.5-1.5h17c0.828,0,1.5,0.672,1.5,1.5C52,59.578,51.328,60.25,50.5,60.25z"/><path fill="#70bfff" d="M66.5,60.25h-8c-0.828,0-1.5-0.672-1.5-1.5c0-0.828,0.672-1.5,1.5-1.5h8c0.828,0,1.5,0.672,1.5,1.5C68,59.578,67.328,60.25,66.5,60.25z"/><rect width="4.235" height="15.529" x="46.882" y="27.235" fill="#ff7575"/><rect width="4.235" height="15.529" x="46.881" y="27.236" fill="#ff7575" transform="rotate(-60 49 35.002)"/><rect width="15.529" height="4.235" x="41.235" y="32.883" fill="#ff7575" transform="rotate(-30 48.997 35.003)"/></svg>
