<svg xmlns="http://www.w3.org/2000/svg" viewBox="0 0 100 100"><path d="M95.27,79.56L82,66.3V17.5C82,11.16,76.84,6,70.5,6h-37c-3.25,0-6.18,1.35-8.28,3.52l-0.47-0.48 C22.78,7.08,20.17,6,17.39,6c-2.76,0-5.36,1.07-7.33,3.02C5.99,13.1,6,19.7,10.04,23.75L22,35.7v50.8C22,92.84,27.16,98,33.5,98h37 c3.76,0,7.1-1.81,9.2-4.6l0.86,0.87c1.97,1.96,4.58,3.04,7.36,3.04c2.77,0,5.38-1.08,7.35-3.04c1.96-1.96,3.04-4.57,3.04-7.35 C98.31,84.13,97.23,81.52,95.27,79.56z M91.73,90.73c-1.02,1.02-2.37,1.58-3.81,1.58c-1.45,0-2.8-0.56-3.82-1.58l-7.1-7.1v2.87 c0,3.58-2.92,6.5-6.5,6.5h-37c-3.58,0-6.5-2.92-6.5-6.5V33.63L13.58,20.21c-2.1-2.1-2.1-5.53,0-7.64C14.6,11.56,15.96,11,17.39,11 c1.45,0,2.8,0.56,3.82,1.58L27,18.37V17.5c0-3.58,2.92-6.5,6.5-6.5h37c3.58,0,6.5,2.92,6.5,6.5v50.87L91.73,83.1 C93.83,85.2,93.83,88.63,91.73,90.73z" opacity=".35"/><path fill="#d9eeff" d="M63.213,89.5H36.787c-5.681,0-10.287-4.606-10.287-10.287v-61.66c0-3.895,3.158-7.053,7.053-7.053 h32.894c3.895,0,7.053,3.158,7.053,7.053v61.66C73.5,84.894,68.894,89.5,63.213,89.5z"/><path fill="#40396e" d="M38,10.5h2.5c1.657,0,3,1.343,3,3l0,0c0,0.552,0.448,1,1,1h11c0.552,0,1-0.448,1-1l0,0 c0-1.657,1.343-3,3-3H62"/><path fill="#40396e" d="M55.5,16h-11c-1.379,0-2.5-1.122-2.5-2.5c0-0.827-0.673-1.5-1.5-1.5H38V9h2.5 c2.312,0,4.223,1.753,4.473,4h10.055c0.25-2.247,2.16-4,4.473-4H62v3h-2.5c-0.827,0-1.5,0.673-1.5,1.5C58,14.878,56.879,16,55.5,16 z"/><path fill="#ff7575" d="M86.358,87.81c-0.655,0-1.271-0.255-1.734-0.718L13.218,15.686 c-0.956-0.956-0.956-2.511-0.001-3.467c0.465-0.464,1.081-0.718,1.735-0.718c0.656,0,1.272,0.255,1.735,0.719l71.405,71.405 c0.956,0.956,0.956,2.511,0.001,3.467C87.627,87.555,87.012,87.81,86.358,87.81z"/><path fill="#40396e" d="M91.5,79.33l-14-14V15.5c0-4.96-4.04-9-9-9h-37c-3.47,0-6.48,1.97-7.98,4.85l-2.54-2.54 C19.49,7.32,17.5,6.5,15.39,6.5c-2.1,0-4.08,0.81-5.58,2.31c-3.07,3.08-3.07,8.09,0,11.17L22.5,32.67V84.5c0,4.96,4.04,9,9,9h37 c4.01,0,7.41-2.63,8.57-6.26l3.26,3.26c1.49,1.49,3.48,2.31,5.59,2.31c2.11,0,4.09-0.82,5.58-2.31 C94.58,87.42,94.58,82.41,91.5,79.33z M87.61,86.61c-0.45,0.45-1.05,0.7-1.69,0.7c-0.64,0-1.24-0.25-1.7-0.7L75,77.39l-1.29-1.29 c-0.21-0.21-0.46-0.3-0.7-0.3c-0.52,0-1.01,0.4-1.01,1V80c0,1.66-1.34,3-3,3H31c-1.66,0-3-1.34-3-3V31.63 c0-0.79-0.32-1.56-0.88-2.12L25,27.39l-11.3-11.3c-0.93-0.94-0.93-2.46,0-3.39c0.45-0.45,1.05-0.7,1.69-0.7s1.24,0.25,1.7,0.7 l9.2,9.2c0.21,0.21,0.46,0.3,0.7,0.3c0.52,0,1.01-0.4,1.01-1v-5.7c0-1.93,1.57-3.5,3.5-3.5h37c1.93,0,3.5,1.57,3.5,3.5v50.87 c0,0.79,0.32,1.56,0.88,2.12l14.73,14.73C88.54,84.16,88.54,85.68,87.61,86.61z"/><path fill="#f2f2f2" d="M93.27,77.56L80,64.3V15.5C80,9.16,74.84,4,68.5,4h-37c-3.25,0-6.18,1.35-8.28,3.52l-0.47-0.48 C20.78,5.08,18.17,4,15.39,4c-2.76,0-5.36,1.07-7.33,3.02C3.99,11.1,4,17.7,8.04,21.75L20,33.7v50.8C20,90.84,25.16,96,31.5,96h37 c3.76,0,7.1-1.81,9.2-4.6l0.86,0.87c1.97,1.96,4.58,3.04,7.36,3.04c2.77,0,5.38-1.08,7.35-3.04c1.96-1.96,3.04-4.57,3.04-7.35 C96.31,82.13,95.23,79.52,93.27,77.56z M89.73,88.73c-1.02,1.02-2.37,1.58-3.81,1.58c-1.45,0-2.8-0.56-3.82-1.58l-7.1-7.1v2.87 c0,3.58-2.92,6.5-6.5,6.5h-37c-3.58,0-6.5-2.92-6.5-6.5V31.63L11.58,18.21c-2.1-2.1-2.1-5.53,0-7.64C12.6,9.56,13.96,9,15.39,9 c1.45,0,2.8,0.56,3.82,1.58L25,16.37V15.5c0-3.58,2.92-6.5,6.5-6.5h37c3.58,0,6.5,2.92,6.5,6.5v50.87L89.73,81.1 C91.83,83.2,91.83,86.63,89.73,88.73z"/></svg>
