<svg xmlns="http://www.w3.org/2000/svg" viewBox="0 0 100 100"><path d="M27.506,93.008c-3.584,0-6.5-2.916-6.5-6.5c0-2.74,0.577-5.285,1.643-7.505H10.534 c-3.584,0-6.5-2.916-6.5-6.5c0-6.711,4.217-12.73,10.511-15.028l4.813-2.024c-0.812-1.482-1.361-2.934-1.729-4.275 c-0.957-0.532-0.647-1.996-1.392-2.849c-3.271-3.744-5.597-9.742-2.091-13.842c0.077-0.09,0.156-0.178,0.237-0.264 c-0.873-5.43-0.185-10.137,2.059-14.029c3.263-5.66,8.769-7.639,10.984-8.227c0.848-0.225,3.892-0.959,7.46-0.959 c6.155,0,9.49,2.193,11.291,4.425c0.208,0.133,0.416,0.272,0.626,0.419c1.788,0.782,3.335,1.8,4.623,3.029 c2.598-3.521,6.329-5.662,9.927-6.609c0.841-0.222,3.862-0.945,7.402-0.945c5.652,0,8.881,1.884,10.699,3.782 c0.453,0.269,0.9,0.561,1.349,0.881c6.562,3.097,9.603,9.526,8.426,17.81c0.231,0.214,0.451,0.442,0.657,0.684 c3.509,4.104,2.363,10.867-0.908,14.609c-0.746,0.854-1.615,1.555-2.574,2.087c-0.366,1.342-0.913,2.793-1.724,4.275l4.88,2.054 c6.245,2.279,10.429,8.286,10.429,14.997c0,3.584-2.916,6.5-6.5,6.5H81.368c1.07,2.22,1.649,4.766,1.649,7.505 c0,3.584-2.916,6.5-6.5,6.5H27.506z" opacity=".35"/><path fill="#f2f2f2" d="M25.506,91.008c-3.584,0-6.5-2.916-6.5-6.5c0-2.74,0.577-5.285,1.643-7.505H8.534 c-3.584,0-6.5-2.916-6.5-6.5c0-6.711,4.217-12.73,10.511-15.028l4.813-2.024c-0.812-1.482-1.361-2.934-1.729-4.275 c-0.957-0.532-1.827-1.233-2.572-2.086c-3.271-3.744-4.417-10.505-0.912-14.605c0.077-0.09,0.156-0.178,0.237-0.264 c-0.873-5.43-0.185-10.137,2.059-14.029c3.263-5.66,8.769-7.639,10.984-8.227c0.848-0.225,3.892-0.959,7.46-0.959 c6.155,0,9.49,2.193,11.291,4.425c0.208,0.133,0.416,0.272,0.626,0.419c1.788,0.782,3.335,1.8,4.623,3.029 c2.598-3.521,6.329-5.662,9.927-6.609c0.841-0.222,3.862-0.945,7.402-0.945c5.652,0,8.881,1.884,10.699,3.782 c0.453,0.269,0.9,0.561,1.349,0.881c6.562,3.097,9.603,9.526,8.426,17.81c0.231,0.214,0.451,0.442,0.657,0.684 c3.509,4.104,2.363,10.867-0.908,14.609c-0.746,0.854-1.615,1.555-2.574,2.087c-0.366,1.342-0.913,2.793-1.724,4.275l4.88,2.054 c6.245,2.279,10.429,8.286,10.429,14.997c0,3.584-2.916,6.5-6.5,6.5H79.368c1.07,2.22,1.649,4.766,1.649,7.505 c0,3.584-2.916,6.5-6.5,6.5H25.506z"/><path fill="#d47f56" d="M51.868,61.548l-12.399-4.112l1.044-4.814c2.636-2.134,3.1-5.105,4.34-8.886 c1.038,0.972,2.813,0.61,4.152-0.923c1.457-1.667,1.844-4.084,0.866-5.398c-0.782-1.05-2.199-1.075-3.48-0.193 c0.356-2.295,0.146-4.482,0.146-6.33c0-8.559-5.806-13.731-13.427-13.731s-13.427,5.172-13.427,13.731 c0,1.881-0.149,4.115,0.297,6.455c-0.297-1.112-2.113-1.029-2.93,0.068c-0.979,1.314-0.591,3.73,0.866,5.398 c1.457,1.667,2.709,1.954,3.688,0.641c0.004-0.005,0.007-0.011,0.011-0.017c0.895,4.099,1.364,6.862,3.732,9.078l1.403,4.921 l-11.887,4.112c-3.793,1.343-6.328,4.931-6.328,8.955v0h49.663v0C58.197,66.479,55.661,62.892,51.868,61.548z"/><path fill="#40396e" d="M33.245,54.609c3.415,0,6.561-1.825,6.561-1.825s-1.571,4.652-6.561,4.652 c-4.95,0-6.877-4.702-6.877-4.702S29.83,54.609,33.245,54.609z" opacity=".35"/><path fill="#96c362" d="M51.868,61.548L40.103,57.69c-0.47,3.447-3.418,6.107-6.994,6.107s-6.525-2.659-6.994-6.107 l-11.253,3.859c-3.793,1.343-6.328,4.931-6.328,8.955v0h49.663v0C58.197,66.479,55.661,62.892,51.868,61.548z"/><path fill="none" stroke="#40396e" stroke-linecap="round" stroke-linejoin="round" stroke-miterlimit="10" stroke-width="3" d="M58.197,70.503c0-4.024-2.535-7.611-6.328-8.955l-11.339-4.466v-3.533c4.594-4.6,4.236-9.899,4.24-9.894 c0,0,2.053,0.825,3.51-0.843c1.457-1.667,1.93-4.86,0.866-6.104c-0.424-0.496-1.638-1.132-2.962-0.126 c0.446-2.34,0.707-3.809,0.707-5.69c0-8.559-6.159-14.084-13.78-14.084"/><path fill="none" stroke="#40396e" stroke-linecap="round" stroke-linejoin="round" stroke-miterlimit="10" stroke-width="3" d="M33.109,16.808c-7.621,0-13.78,5.525-13.78,14.084c0,1.881,0.261,3.35,0.707,5.69c-1.324-1.006-2.526-0.369-2.95,0.126 c-1.065,1.245-0.591,4.437,0.866,6.104c1.457,1.667,3.498,0.843,3.498,0.843c0.004-0.005-0.553,5.294,4.04,9.894v3.533 l-10.627,4.466c-3.793,1.343-6.328,4.931-6.328,8.955v0h34.256"/><path fill="#40396e" d="M26.131,24.922c3.92,0,10.151,0,14.071,0c1.969,0,3.444,1.56,3.669,3.509 c0.786,6.792,1.414,8.505,1.414,8.505h4.136c-0.05-0.081-0.103-0.158-0.162-0.227c-0.426-0.496-1.587-1.074-2.916-0.068 c0.448-2.34,0.653-3.867,0.653-5.748c0-8.559-6.181-14.084-13.829-14.084s-13.829,5.525-13.829,14.084 c0,1.881,0.205,3.408,0.653,5.748c-1.329-1.006-2.479-0.428-2.904,0.068c-0.059,0.069-0.112,0.146-0.162,0.227l4.654-0.239 c0,0,0.112-1.345,0.883-8.265C22.679,26.481,24.162,24.922,26.131,24.922z"/><path fill="#40396e" d="M18.114,34.994c0,0,1.564-1.954,3.09-2.332c0,0,18.672-1.134,20.166-10.572 c1.609-10.159-11.074-8.245-14.663-7.293C23.562,15.632,13.744,19.623,18.114,34.994z"/><path fill="#40396e" d="M39.873,23.953c0,0-0.268,2.659,4.873,8.742l3.071,2.367c0,0,5.457-13.955-7.066-17.357 L39.873,23.953z"/><g><path fill="#ffb789" d="M84.672,61.599l-11.132-4.307l0.289-4.62c2.636-2.134,3.1-5.105,4.34-8.886 c1.038,0.972,2.813,0.61,4.152-0.923c1.457-1.667,1.844-4.084,0.866-5.398c-0.782-1.05-2.199-1.075-3.48-0.193 c0.356-2.295,0.146-4.482,0.146-6.33c0-8.559-5.806-13.731-13.427-13.731s-13.427,5.172-13.427,13.731 c0,1.881-0.149,4.115,0.297,6.455c-0.297-1.112-2.113-1.029-2.93,0.068c-0.979,1.314-0.591,3.73,0.866,5.398 c1.457,1.667,2.709,1.954,3.688,0.641c0.004-0.005,0.007-0.011,0.011-0.017c0.895,4.099,1.364,6.862,3.732,9.078l1.403,4.921 l-12.399,4.112c-3.793,1.343-2.153,4.731-2.153,8.755L44.5,70.556L91,70.554v0C91,66.53,88.465,62.942,84.672,61.599z"/><path fill="#40396e" d="M67.048,54.609c3.415,0,6.561-1.825,6.561-1.825s-1.571,4.652-6.561,4.652 c-4.95,0-6.877-4.702-6.877-4.702S63.633,54.609,67.048,54.609z" opacity=".35"/><path fill="#ff7575" d="M85.16,61.548L73.907,57.69c-0.47,3.447-3.418,6.107-6.994,6.107 c-3.576,0-6.525-2.659-6.994-6.107l-11.765,3.859c-3.793,1.343-2.052,3.518-2.052,7.542l0.438,1.112l44.949,0.301v0 C91.489,66.479,88.953,62.892,85.16,61.548z"/><path fill="none" stroke="#40396e" stroke-linecap="round" stroke-linejoin="round" stroke-miterlimit="10" stroke-width="3" d="M57.5,70.503h33.989v0c0-4.024-2.535-7.611-6.328-8.955l-10.61-4.466v-3.533c4.594-4.6,4.018-9.899,4.022-9.894 c0,0,2.053,0.825,3.51-0.843c1.457-1.667,1.93-4.86,0.866-6.104c-0.424-0.496-1.638-1.132-2.962-0.126 c0.446-2.34,0.707-3.809,0.707-5.69c0-8.559-6.159-14.084-13.78-14.084"/><path fill="none" stroke="#40396e" stroke-linecap="round" stroke-linejoin="round" stroke-miterlimit="10" stroke-width="3" d="M66.912,16.808c-7.621,0-13.78,5.525-13.78,14.084c0,1.881,0.261,3.35,0.707,5.69c-1.324-1.006-2.526-0.369-2.95,0.126 c-1.065,1.245-0.591,4.437,0.866,6.104c1.457,1.667,3.498,0.843,3.498,0.843c0.004-0.005-0.353,5.294,4.24,9.894v3.533"/><path fill="#40396e" d="M59.902,24.922c3.906,0,10.115,0,14.021,0c1.963,0,3.432,1.56,3.656,3.509 c0.783,6.792,0.906,8.299,0.906,8.299l4.624,0.205c-0.05-0.081-0.102-0.158-0.162-0.227c-0.424-0.496-1.582-1.074-2.906-0.068 c0.446-2.34,0.651-3.867,0.651-5.748c0-8.559-6.159-14.084-13.78-14.084s-13.78,5.525-13.78,14.084 c0,1.881,0.205,3.408,0.651,5.748c-1.324-1.006-2.47-0.428-2.894,0.068c-0.059,0.069-0.112,0.146-0.162,0.227h4.108 c0,0,0.641-1.584,1.41-8.504C56.462,26.481,57.939,24.922,59.902,24.922z"/><path fill="#40396e" d="M52.1,34.994c0,0,1.552-1.925,3.066-2.297c0,0,18.526-1.117,20.009-10.412 c1.596-10.005-10.988-8.12-14.549-7.182C57.505,15.925,47.764,19.856,52.1,34.994z"/><path fill="#40396e" d="M73.676,23.953c0,0-0.258,2.659,4.694,8.742l2.959,2.367c0,0,5.258-13.955-6.807-17.357 L73.676,23.953z"/></g><g><path fill="#ffd8bf" d="M68.747,75.204l-11.765-3.855l-0.297-4.901c2.636-2.133,3.716-5.58,4.956-9.358 c1.045,1.517,2.287,1.028,3.202-0.606c1.082-1.93,1.618-4.602,0.657-5.765c-0.884-1.07-1.702-0.876-2.231,0.18 c0.356-2.293,0.146-4.479,0.146-6.325c0-8.552-5.806-13.719-13.427-13.719s-13.427,5.167-13.427,13.719 c0,1.88-0.149,4.111,0.297,6.45c-0.297-1.111-1.454-1.459-2.271-0.363c-0.979,1.312-0.64,3.933,0.508,5.824 c1.022,1.684,2.408,1.953,3.386,0.64c0.004-0.005,0.007-0.011,0.011-0.017c0.895,4.096,2.386,7.076,4.754,9.289l-0.266,5.207 l-11.752,3.6c-3.793,1.342-5.734,4.927-5.734,8.947v0h49.011v0C74.506,80.131,72.54,76.546,68.747,75.204z"/><path fill="#40396e" d="M50.135,68.271c3.415,0,6.561-1.823,6.561-1.823s-1.571,4.648-6.561,4.648 c-4.95,0-6.877-4.698-6.877-4.698S46.719,68.271,50.135,68.271z" opacity=".35"/><path fill="#70bfff" d="M68.758,75.204l-11.765-3.855c-0.47,3.445-3.418,6.101-6.994,6.101 c-3.576,0-6.525-2.657-6.994-6.101L31.24,75.204c-3.793,1.342-5.734,4.927-5.734,8.947v0h49.011v0 C74.517,80.131,72.551,76.546,68.758,75.204z"/><path fill="none" stroke="#40396e" stroke-linejoin="round" stroke-miterlimit="10" stroke-width="3" d="M42.296,70.013 L31.24,75.561c-3.793,1.342-5.734,4.927-5.734,8.947v0h49.011v0c0-4.021-1.966-7.605-5.759-8.947l-11.053-5.574"/><path fill="#40396e" d="M42.988,38.609c3.906,0,10.115,0,14.021,0c1.963,0,2.721,1.736,2.945,3.684 c0.783,6.786,1.217,8.635,1.217,8.635s1.775-0.736,1.957-0.609c0.446-2.338,0.651-3.864,0.651-5.743 c0-8.552-6.159-14.072-13.78-14.072s-13.78,5.52-13.78,14.072c0,1.88,0.335,4.088,0.781,6.426c1-1,1.997,0.093,1.997,0.093 s0.445-2.103,1.213-9.018C40.427,40.127,41.026,38.609,42.988,38.609z"/><path fill="#40396e" d="M36.869,51.023c0,0,0.197-4.274,1.688-4.645c0,0,18.245-1.116,19.706-10.403 c1.572-9.996-10.822-8.113-14.328-7.176C40.862,29.62,30.933,35.811,36.869,51.023z"/><path fill="#40396e" d="M56.762,37.641c0,0-0.647,3.882,4.305,9.96l2.257,3.297c0,0,6.349-16.101-5.717-19.501 L56.762,37.641z"/></g><circle cx="37.927" cy="50.927" r="1.073" fill="#40396e"/><circle cx="62.245" cy="50.927" r="1.073" fill="#40396e"/><rect width="1.669" height=".787" x="57.764" y="68.213" fill="#ff7575"/><rect width="2" height="1" x="40" y="68" fill="#96c362"/></svg>
