<svg xmlns="http://www.w3.org/2000/svg" viewBox="0 0 100 100"><path d="M67.499,58c-1.147,0-2.277-0.306-3.27-0.883c-1.494-0.868-2.567-2.272-3.012-3.951 c-0.445-1.679-0.21-3.43,0.662-4.932l17.999-30.998C81.037,15.24,83.192,14,85.503,14c1.146,0,2.275,0.306,3.266,0.882 c1.496,0.869,2.569,2.273,3.014,3.952c0.445,1.679,0.21,3.43-0.662,4.932L73.121,54.764C71.962,56.76,69.808,58,67.499,58z" opacity=".35"/><path fill="#f2f2f2" d="M65.499,56c-1.147,0-2.277-0.306-3.27-0.883c-1.494-0.868-2.567-2.272-3.012-3.951 c-0.445-1.679-0.21-3.43,0.662-4.932l17.999-30.998C79.037,13.24,81.192,12,83.503,12c1.146,0,2.275,0.306,3.266,0.882 c1.496,0.869,2.569,2.273,3.014,3.952c0.445,1.679,0.21,3.43-0.662,4.932L71.121,52.764C69.962,54.76,67.808,56,65.499,56z"/><path d="M39.501,58c-2.309,0-4.463-1.24-5.622-3.237l-18-30.999c-0.871-1.5-1.106-3.251-0.661-4.93 c0.444-1.679,1.518-3.083,3.02-3.955C19.225,14.305,20.354,14,21.498,14c2.31,0,4.465,1.24,5.623,3.237l18,30.999 c0.871,1.5,1.106,3.251,0.661,4.93s-1.518,3.083-3.02,3.955C41.778,57.694,40.648,58,39.501,58z" opacity=".35"/><path fill="#f2f2f2" d="M35.501,56c-2.309,0-4.463-1.24-5.622-3.237l-18-30.999c-0.871-1.5-1.106-3.251-0.661-4.93 c0.444-1.679,1.518-3.083,3.02-3.955C15.225,12.305,16.354,12,17.498,12c2.31,0,4.465,1.24,5.623,3.237l18,30.999 c0.871,1.5,1.106,3.251,0.661,4.93s-1.518,3.083-3.02,3.955C37.778,55.694,36.648,56,35.501,56z"/><path fill="#40396e" d="M35.501,51c-0.517,0-1.02-0.268-1.298-0.747l-18-31c-0.416-0.716-0.173-1.634,0.544-2.05 c0.714-0.415,1.634-0.173,2.05,0.544l18,31c0.416,0.716,0.173,1.634-0.544,2.05C36.017,50.935,35.757,51,35.501,51z"/><path fill="#40396e" d="M65.499,51c-0.256,0-0.516-0.065-0.752-0.203c-0.717-0.416-0.96-1.334-0.544-2.05l18-31 c0.416-0.717,1.337-0.959,2.05-0.544c0.717,0.416,0.96,1.334,0.544,2.05l-18,31C66.519,50.732,66.016,51,65.499,51z"/><path d="M51.5,56c-3.584,0-6.5-2.916-6.5-6.5v-30c0-3.584,2.916-6.5,6.5-6.5s6.5,2.916,6.5,6.5v30 C58,53.084,55.084,56,51.5,56z" opacity=".35"/><path fill="#f2f2f2" d="M49.5,54c-3.584,0-6.5-2.916-6.5-6.5v-30c0-3.584,2.916-6.5,6.5-6.5s6.5,2.916,6.5,6.5v30 C56,51.084,53.084,54,49.5,54z"/><path fill="#40396e" d="M49.5,49c-0.828,0-1.5-0.672-1.5-1.5v-30c0-0.828,0.672-1.5,1.5-1.5s1.5,0.672,1.5,1.5v30 C51,48.328,50.328,49,49.5,49z"/><path d="M71.118,92.988c-5.575,0-10.11-4.55-10.11-10.142v-6.251c-1.893-0.314-4.788-0.607-9.008-0.607 c-4.233,0-7.107,0.285-8.986,0.599v6.214c0,5.593-4.535,10.143-10.11,10.143h-14.8c-5.575,0-10.11-4.55-10.11-10.143v-8.883 c0-3.158,1.155-6.162,3.253-8.457C15.843,60.439,27.246,52.017,52,52.017c24.752,0,36.154,8.423,40.748,13.443 c2.099,2.294,3.255,5.298,3.255,8.458v8.929c0,5.592-4.535,10.142-10.11,10.142H71.118z" opacity=".35"/><path fill="#f2f2f2" d="M69.118,90.988c-5.575,0-10.11-4.55-10.11-10.142v-6.251c-1.893-0.314-4.788-0.607-9.008-0.607 c-4.233,0-7.107,0.285-8.986,0.599v6.214c0,5.593-4.535,10.143-10.11,10.143h-14.8c-5.575,0-10.11-4.55-10.11-10.143v-8.883 c0-3.158,1.155-6.162,3.253-8.457C13.843,58.439,25.246,50.017,50,50.017c24.752,0,36.154,8.423,40.748,13.443 c2.099,2.294,3.255,5.298,3.255,8.458v8.929c0,5.592-4.535,10.142-10.11,10.142H69.118z"/><path fill="#739f4d" d="M50,56.517c-23.14,0-32.537,7.596-35.955,11.331c-1.012,1.106-1.551,2.565-1.551,4.07v8.883 c0,2.012,1.616,3.643,3.61,3.643h14.8c1.994,0,3.61-1.631,3.61-3.643V69.873c0,0,2.851-2.384,15.486-2.384 s15.508,2.384,15.508,2.384v10.973c0,2.012,1.616,3.643,3.61,3.643h14.775c1.994,0,3.61-1.631,3.61-3.643v-8.929 c0-1.505-0.539-2.964-1.551-4.07C82.534,64.113,73.14,56.517,50,56.517z"/><path fill="none" stroke="#40396e" stroke-linecap="round" stroke-linejoin="round" stroke-miterlimit="10" stroke-width="3" d="M50,56.517c-23.14,0-32.537,7.596-35.955,11.331c-1.012,1.106-1.551,2.565-1.551,4.07v8.883c0,2.012,1.616,3.643,3.61,3.643h14.8 c1.994,0,3.61-1.631,3.61-3.643V69.873c0,0,2.851-2.384,15.486-2.384s15.508,2.384,15.508,2.384v10.973 c0,2.012,1.616,3.643,3.61,3.643h14.775c1.994,0,3.61-1.631,3.61-3.643v-8.929c0-1.505-0.539-2.964-1.551-4.07 C82.534,64.113,73.14,56.517,50,56.517z"/><path fill="#40396e" d="M35.501,51c-0.517,0-1.02-0.268-1.298-0.747l-18-31c-0.416-0.716-0.173-1.634,0.544-2.05 c0.714-0.415,1.634-0.173,2.05,0.544l18,31c0.416,0.716,0.173,1.634-0.544,2.05C36.017,50.935,35.757,51,35.501,51z"/><path fill="#40396e" d="M65.499,51c-0.256,0-0.516-0.065-0.752-0.203c-0.717-0.416-0.96-1.334-0.544-2.05l18-31 c0.416-0.717,1.337-0.959,2.05-0.544c0.717,0.416,0.96,1.334,0.544,2.05l-18,31C66.519,50.732,66.016,51,65.499,51z"/><g><path fill="#40396e" d="M49.5,49c-0.828,0-1.5-0.672-1.5-1.5v-30c0-0.828,0.672-1.5,1.5-1.5s1.5,0.672,1.5,1.5v30 C51,48.328,50.328,49,49.5,49z"/></g></svg>
