<svg xmlns="http://www.w3.org/2000/svg" baseProfile="basic" viewBox="0 0 100 100"><path d="M82.84,20.44C81.85,14.25,76.47,9.5,70,9.5H35c-6.42,0-11.77,4.68-12.82,10.81C18.5,22.25,16,26.12,16,30.5v7c0,3.07,2.14,1.82,5,2.5v40.5c0,3.26,1.64,6.17,4.19,7.88C26.06,92.72,29.91,96,34.5,96h35c4.59,0,8.44-3.28,9.31-7.62C81.36,86.67,83,83.76,83,80.5V43.83c2.86-0.68,5-3.26,5-6.33v-8C88,25.64,85.95,22.26,82.84,20.44z M78,80.5c0,2.31-1.75,4.22-4,4.47v1.53c0,2.48-2.02,4.5-4.5,4.5h-35c-2.48,0-4.5-2.02-4.5-4.5v-1.53c-2.25-0.25-4-2.16-4-4.47V39h-3.5c-0.83,0-1.5-0.67-1.5-1.5v-7c0-3.42,2.65-6.22,6-6.48V22.5c0-4.41,3.59-8,8-8h35c4.41,0,8,3.59,8,8v1.52c2.8,0.26,5,2.62,5,5.48v8c0,0.83-0.67,1.5-1.5,1.5H78V80.5z" opacity=".35"/><path fill="#ef8630" d="M32.5,87.5h35c1.657,0,3-1.343,3-3v-7h-41v7C29.5,86.157,30.843,87.5,32.5,87.5z"/><path fill="#9ba7c5" d="M74,33H26V19c0-2.761,2.239-5,5-5h38c2.761,0,5,2.239,5,5V33z"/><rect width="50" height="47" x="25" y="33" fill="#ffc571"/><rect width="26" height="26.48" x="37" y="43" fill="#fedeb3"/><rect width="60" height="9" x="20" y="25" fill="#d9eeff"/><path fill="#40396e" d="M78.49,20.09C78.27,14.49,73.65,10,68,10H33c-5.63,0-10.23,4.45-10.49,10.01C19,21.26,16.5,24.63,16.5,28.5v7c0,2.21,1.79,4,4,4h1v39c0,2.78,1.62,5.21,4.01,6.33c0.17,3.71,3.24,6.67,6.99,6.67h35c3.75,0,6.82-2.96,6.99-6.67c2.39-1.12,4.01-3.55,4.01-6.33v-39h1c2.21,0,4-1.79,4-4v-8C83.5,24.2,81.43,21.29,78.49,20.09z M78,34h-3.5c-0.83,0-1.5,0.67-1.5,1.5v43c0,0.83-0.67,1.5-1.5,1.5h-1c-0.83,0-1.5,0.67-1.5,1.5v3c0,0.83-0.67,1.5-1.5,1.5h-35c-0.83,0-1.5-0.67-1.5-1.5v-3c0-0.83-0.67-1.5-1.5-1.5h-1c-0.83,0-1.5-0.67-1.5-1.5v-43c0-0.83-0.67-1.5-1.5-1.5H22v-5.5c0-1.93,1.57-3.5,3.5-3.5h1c0.83,0,1.5-0.67,1.5-1.5v-3c0-2.76,2.24-5,5-5h35c2.76,0,5,2.24,5,5v3c0,0.83,0.67,1.5,1.5,1.5h1c1.38,0,2.5,1.12,2.5,2.5V34z"/><path fill="#f2f2f2" d="M80.84,18.44C79.85,12.25,74.47,7.5,68,7.5H33c-6.42,0-11.77,4.68-12.82,10.81C16.5,20.25,14,24.12,14,28.5v7c0,3.07,2.14,5.65,5,6.33V78.5c0,3.26,1.64,6.17,4.19,7.88C24.06,90.72,27.91,94,32.5,94h35c4.59,0,8.44-3.28,9.31-7.62C79.36,84.67,81,81.76,81,78.5V41.83c2.86-0.68,5-3.26,5-6.33v-8C86,23.64,83.95,20.26,80.84,18.44z M76,78.5c0,2.31-1.75,4.22-4,4.47v1.53c0,2.48-2.02,4.5-4.5,4.5h-35c-2.48,0-4.5-2.02-4.5-4.5v-1.53c-2.25-0.25-4-2.16-4-4.47V37h-3.5c-0.83,0-1.5-0.67-1.5-1.5v-7c0-3.42,2.65-6.22,6-6.48V20.5c0-4.41,3.59-8,8-8h35c4.41,0,8,3.59,8,8v1.52c2.8,0.26,5,2.62,5,5.48v8c0,0.83-0.67,1.5-1.5,1.5H76V78.5z"/><path fill="#40396e" d="M56.74,63.17l-2.81-3.74l2.71-3.58c0.19-0.26,0.28-0.52,0.25-0.76c-0.03-0.24-0.14-0.44-0.33-0.59c-0.19-0.15-0.42-0.23-0.7-0.23c-0.24,0-0.45,0.06-0.64,0.17c-0.18,0.12-0.36,0.3-0.55,0.55l-2.01,2.81l-2.02-2.81c-0.21-0.28-0.43-0.48-0.67-0.6c0.62-0.18,1.11-0.51,1.46-0.96c0.39-0.51,0.59-1.14,0.59-1.91c0-0.98-0.31-1.75-0.93-2.3c-0.62-0.55-1.5-0.82-2.63-0.82h-3.52c-0.76,0-1.14,0.38-1.14,1.14v8.03c0,0.37,0.09,0.66,0.29,0.86c0.19,0.2,0.47,0.3,0.84,0.3c0.36,0,0.64-0.1,0.83-0.3c0.19-0.2,0.28-0.49,0.28-0.86v-2.92h1.1c0.29,0,0.54,0.05,0.75,0.14c0.21,0.1,0.39,0.29,0.54,0.56l0.04,0.07l0.29,0.53l2.07,2.76l0.54,0.72l-2.82,3.74c-0.18,0.25-0.26,0.5-0.23,0.74c0.03,0.24,0.14,0.44,0.33,0.59c0.18,0.15,0.42,0.23,0.71,0.23c0.23,0,0.44-0.06,0.62-0.17c0.19-0.12,0.37-0.31,0.55-0.57l2.12-2.91l2.12,2.91c0.2,0.26,0.38,0.45,0.56,0.57c0.18,0.11,0.39,0.17,0.62,0.17c0.3,0,0.54-0.08,0.73-0.23c0.19-0.15,0.29-0.35,0.32-0.59C57.02,63.67,56.94,63.42,56.74,63.17z M48.05,53.03h-2.01v-2.88h2.01c1.21,0,1.81,0.48,1.81,1.43C49.86,52.55,49.26,53.03,48.05,53.03z"/></svg>
