<svg xmlns="http://www.w3.org/2000/svg" baseProfile="basic" viewBox="0 0 100 100"><path d="M42.609,14c2.365,0.049,4.34,1.775,4.71,4.115l6.588,42.042l6.228-29.611c0.458-2.213,2.355-3.793,4.603-3.871h0.214 c2.18,0,4.097,1.501,4.652,3.656l4.856,18.866c0.895-0.975,2.18-1.56,3.572-1.56h6.257c1.324-1.501,3.26-2.438,5.421-2.438 c4.029,0,7.299,3.276,7.299,7.312c0,4.037-3.27,7.312-7.299,7.312c-2.16,0-4.097-0.936-5.421-2.438h-2.686l-3.192,10.121 c-0.623,2.008-2.511,3.412-4.564,3.412c-0.087,0-0.185,0-0.272-0.01c-2.131-0.088-3.98-1.579-4.515-3.656l-3.688-14.323 l-7.396,35.198C57.508,90.372,55.503,92,53.216,92h-0.156c-2.336-0.078-4.292-1.804-4.652-4.115l-6.423-40.979l-4.428,22.63 c-0.448,2.243-2.345,3.861-4.623,3.939h-0.126c-2.219,0-4.175-1.492-4.74-3.637l-3.533-13.445 c-0.827,0.634-1.849,0.995-2.949,0.995h-9.732c-2.686,0-4.866-2.184-4.866-4.875c0-2.691,2.18-4.875,4.866-4.875h6.228 l2.783-8.365c0.652-1.97,2.53-3.334,4.564-3.334h0.263c2.112,0.098,3.951,1.579,4.496,3.637l1.898,7.234l5.644-28.87 c0.448-2.272,2.404-3.89,4.749-3.939H42.609 M32.498,59.884l-5.138-19.568c-0.214-0.829-0.954-1.423-1.82-1.453h-0.107 c-0.788,0-1.538,0.556-1.8,1.336l-3.445,10.364h-8.33c-1.071,0-1.946,0.877-1.946,1.95s0.876,1.95,1.946,1.95h9.732 c0.837,0,1.577-0.536,1.849-1.336l1.82-5.489l5.644,21.46c0.224,0.868,1.002,1.453,1.907,1.453h0.029 c0.915-0.029,1.674-0.682,1.849-1.58l7.61-38.883l8.992,57.34c0.146,0.926,0.934,1.619,1.878,1.648h0.049 c0.915,0,1.713-0.643,1.907-1.55l9.965-47.424l6.803,26.432c0.214,0.839,0.963,1.433,1.83,1.453c0.039,0.01,0.087,0.01,0.126,0.01 c0.788,0,1.538-0.575,1.781-1.365l3.834-12.168h6.326c0.282,0.575,0.691,1.073,1.178,1.463c0.749,0.614,1.703,0.975,2.744,0.975 c2.413,0,4.379-1.97,4.379-4.388s-1.966-4.387-4.379-4.387c-1.041,0-1.995,0.361-2.744,0.975c-0.487,0.39-0.895,0.887-1.178,1.463 h-7.756c-0.847,0-1.596,0.556-1.859,1.365l-2.209,7.03l-7.182-27.895C66.559,30.224,65.8,29.6,64.953,29.6h-0.097 c-0.905,0.02-1.684,0.663-1.868,1.55l-9.488,45.181l-9.06-57.759c-0.146-0.936-0.944-1.628-1.888-1.648 c-0.944,0.02-1.771,0.643-1.946,1.579L32.498,59.884 M41.324,9.077c-4.234,0.525-7.65,3.647-8.487,7.894l-2.939,15.031 c-1.187-0.605-2.501-0.975-3.87-1.053l-0.494-0.011h-0.103c-4.159,0-7.984,2.78-9.301,6.761l-1.643,4.939h-2.631 C6.422,42.637,2,47.067,2,52.512s4.422,9.875,9.857,9.875h9.095l2.292,8.724c1.091,4.144,4.731,7.092,8.971,7.346l1.74-0.05 c3.024-0.362,5.645-2.079,7.198-4.587l2.326,14.842c0.664,4.261,4.018,7.554,8.191,8.219l2.6,0.063 c4.189-0.455,7.715-3.592,8.591-7.792l3.494-16.63c1.706,1.947,4.149,3.211,6.817,3.376l0.694,0.024 c4.221-0.008,8.048-2.855,9.312-6.929l1.636-5.188c1.526,0.666,3.191,1.021,4.896,1.021c6.776,0,12.289-5.523,12.289-12.312 S96.487,40.2,89.711,40.2c-2.667,0-5.236,0.869-7.331,2.438h-4.347c-0.035,0-0.071,0-0.106,0.001l-3.489-13.555 c-1.076-4.181-4.704-7.153-8.932-7.392l-1.655,0.038c-4.243,0.452-7.726,3.573-8.601,7.803l-0.624,2.966l-2.376-15.159 c-0.676-4.282-4.02-7.557-8.188-8.218L41.324,9.077z" opacity=".35"/><path fill="#40396e" d="M51.061,92.5c-3.615-0.119-6.574-2.738-7.117-6.229l-4.229-26.98l-1.708,8.727 c-0.678,3.394-3.55,5.839-6.986,5.957l-0.212,0.001c-3.36,0-6.302-2.262-7.153-5.5l-2.81-10.693 c-0.411,0.07-0.831,0.106-1.258,0.106H9.857c-4.059,0-7.361-3.309-7.361-7.375s3.302-7.375,7.361-7.375h4.43l2.214-6.656 c0.984-2.969,3.835-5.044,6.932-5.044l0.377,0.003c2.321,0.107,4.434,1.337,5.727,3.192l3.749-19.174 c0.676-3.437,3.614-5.885,7.146-5.958L40.608,9.5c3.62,0.074,6.617,2.691,7.175,6.223l4.483,28.604l3.428-16.297 c0.686-3.324,3.548-5.735,6.958-5.854l0.301-0.002c3.323,0,6.23,2.274,7.068,5.532l4.041,15.699 c0.636-0.177,1.298-0.269,1.97-0.269h5.23c1.764-1.561,4.056-2.438,6.448-2.438c5.4,0,9.794,4.402,9.794,9.812 s-4.394,9.812-9.794,9.812c-2.333,0-4.569-0.834-6.314-2.322l-2.604,8.258c-0.941,3.033-3.798,5.16-6.944,5.16 c-0.14,0-0.293-0.004-0.439-0.015c-3.189-0.159-5.965-2.424-6.766-5.526l-1.025-3.984l-5.201,24.748 c-0.706,3.392-3.734,5.856-7.2,5.856H51.061z M86.027,51.358c0.114,0.232,0.286,0.444,0.497,0.614 c0.349,0.286,0.752,0.428,1.186,0.428c1.039,0,1.884-0.847,1.884-1.888s-0.845-1.888-1.884-1.888c-0.435,0-0.838,0.142-1.165,0.41 c-0.232,0.186-0.405,0.398-0.519,0.632l-0.416,0.846L86.027,51.358z"/><path fill="#f2f2f2" d="M40.609,12c2.365,0.049,4.34,1.775,4.71,4.115l6.588,42.042l6.228-29.611 c0.458-2.213,2.355-3.793,4.603-3.871h0.214c2.18,0,4.097,1.501,4.652,3.656l4.856,18.866c0.895-0.975,2.18-1.56,3.572-1.56h6.257 c1.324-1.501,3.26-2.438,5.421-2.438c4.029,0,7.299,3.276,7.299,7.312c0,4.037-3.27,7.312-7.299,7.312 c-2.16,0-4.097-0.936-5.421-2.438h-2.686l-3.192,10.121c-0.623,2.008-2.511,3.412-4.564,3.412c-0.087,0-0.185,0-0.272-0.01 c-2.131-0.088-3.98-1.579-4.515-3.656l-3.688-14.323l-7.396,35.198C55.508,88.372,53.503,90,51.216,90h-0.156 c-2.336-0.078-4.292-1.804-4.652-4.115l-6.423-40.979l-4.428,22.63c-0.448,2.243-2.345,3.861-4.623,3.939h-0.126 c-2.219,0-4.175-1.492-4.74-3.637l-3.533-13.445c-0.827,0.634-1.849,0.995-2.949,0.995H9.857c-2.686,0-4.866-2.184-4.866-4.875 c0-2.691,2.18-4.875,4.866-4.875h6.228l2.783-8.365c0.652-1.97,2.53-3.334,4.564-3.334h0.263c2.112,0.098,3.951,1.579,4.496,3.637 l1.898,7.234l5.644-28.87c0.448-2.272,2.404-3.89,4.749-3.939H40.609 M30.498,57.884l-5.138-19.568 c-0.214-0.829-0.954-1.423-1.82-1.453h-0.107c-0.788,0-1.538,0.556-1.8,1.336l-3.445,10.364h-8.33 c-1.071,0-1.946,0.877-1.946,1.95s0.876,1.95,1.946,1.95h9.732c0.837,0,1.577-0.536,1.849-1.336l1.82-5.489l5.644,21.46 c0.224,0.868,1.002,1.453,1.907,1.453h0.029c0.915-0.029,1.674-0.682,1.849-1.58l7.61-38.883l8.992,57.34 c0.146,0.926,0.934,1.619,1.878,1.648h0.049c0.915,0,1.713-0.643,1.907-1.55l9.965-47.424l6.803,26.432 c0.214,0.839,0.963,1.433,1.83,1.453c0.039,0.01,0.087,0.01,0.126,0.01c0.788,0,1.538-0.575,1.781-1.365l3.834-12.168h6.326 c0.282,0.575,0.691,1.073,1.178,1.463c0.749,0.614,1.703,0.975,2.744,0.975c2.413,0,4.379-1.97,4.379-4.388 s-1.966-4.387-4.379-4.387c-1.041,0-1.995,0.361-2.744,0.975c-0.487,0.39-0.895,0.887-1.178,1.463h-7.756 c-0.847,0-1.596,0.556-1.859,1.365l-2.209,7.03l-7.182-27.895C64.559,28.224,63.8,27.6,62.953,27.6h-0.097 c-0.905,0.02-1.684,0.663-1.868,1.55l-9.488,45.181l-9.06-57.759c-0.146-0.936-0.944-1.628-1.888-1.648 c-0.944,0.02-1.771,0.643-1.946,1.579L30.498,57.884 M39.324,7.077c-4.234,0.525-7.65,3.647-8.487,7.894l-2.939,15.031 c-1.187-0.605-2.501-0.975-3.87-1.053l-0.494-0.011h-0.103c-4.159,0-7.984,2.78-9.301,6.761l-1.643,4.939H9.857 C4.422,40.637,0,45.067,0,50.512s4.422,9.875,9.857,9.875h9.095l2.292,8.724c1.091,4.144,4.731,7.092,8.971,7.346l1.74-0.05 c3.024-0.362,5.645-2.079,7.198-4.587l2.326,14.842c0.664,4.261,4.018,7.554,8.191,8.219l2.6,0.063 c4.189-0.455,7.715-3.592,8.591-7.792l3.494-16.63c1.706,1.947,4.149,3.211,6.817,3.376l0.694,0.024 c4.221-0.008,8.048-2.855,9.312-6.929l1.636-5.188c1.526,0.666,3.191,1.021,4.896,1.021c6.776,0,12.289-5.523,12.289-12.312 S94.487,38.2,87.711,38.2c-2.667,0-5.236,0.869-7.331,2.438h-4.347c-0.035,0-0.071,0-0.106,0.001l-3.489-13.555 c-1.076-4.181-4.704-7.153-8.932-7.392l-1.655,0.038c-4.243,0.452-7.726,3.573-8.601,7.803l-0.624,2.966l-2.376-15.159 c-0.676-4.282-4.02-7.557-8.188-8.218L39.324,7.077z"/><path fill="#d9eeff" d="M91.972,51.539c-0.405,1.772-1.949,3.132-3.755,3.332c-1.237,0.137-2.382-0.234-3.251-0.947 c-0.412-0.33-0.768-0.738-1.039-1.204c-0.091-0.156-0.25-0.258-0.431-0.258l-5.667,0c-0.218,0-0.411,0.142-0.477,0.35 L73.629,64.63c-0.243,0.79-0.993,1.365-1.781,1.365c-0.039,0-0.088,0-0.126-0.01c-0.866-0.02-1.616-0.614-1.83-1.453 l-5.736-22.287c-0.264-1.024-1.73-0.992-1.947,0.044l-9.085,43.235c-0.195,0.907-0.993,1.55-1.907,1.55h-0.049 c-0.944-0.029-1.732-0.721-1.878-1.648l-8.113-51.733c-0.173-1.105-1.754-1.135-1.969-0.037l-6.52,33.314 c-0.175,0.897-0.934,1.55-1.849,1.579h-0.029c-0.905,0-1.684-0.585-1.907-1.453l-4.788-18.203 c-0.253-0.962-1.603-1.005-1.916-0.06l-0.76,2.293c-0.273,0.799-1.012,1.336-1.849,1.336l-9.611,0 c-0.972,0-1.878-0.658-2.039-1.617c-0.205-1.218,0.739-2.284,1.918-2.284h7.97c0.215,0,0.407-0.138,0.474-0.342l3.331-10.022 c0.263-0.78,1.012-1.336,1.8-1.336h0.107c0.866,0.029,1.606,0.624,1.82,1.453l4.029,15.345c0.27,1.028,1.744,0.981,1.949-0.062 l7.267-37.094c0.175-0.936,1.002-1.56,1.946-1.579c0.944,0.02,1.742,0.712,1.888,1.648l8.215,52.37 c0.172,1.098,1.738,1.138,1.967,0.051l8.367-39.843c0.185-0.887,0.963-1.531,1.868-1.55h0.097c0.847,0,1.606,0.624,1.829,1.462 l6.309,24.505c0.251,0.974,1.621,1.01,1.922,0.05l1.16-3.69c0.263-0.809,1.012-1.365,1.859-1.365l7.464,0 c0.181,0,0.34-0.102,0.431-0.258c0.271-0.467,0.627-0.874,1.039-1.204c0.749-0.614,1.703-0.975,2.744-0.975 C90.458,46.125,92.626,48.678,91.972,51.539z"/></svg>
