<svg xmlns="http://www.w3.org/2000/svg" viewBox="0 0 100 100"><path d="M52.31,96.039c-1.288,0-2.571-0.315-3.712-0.913C33.94,87.438,23.514,73.651,18.442,55.253c-3.713-13.472-3.265-24.754-3.244-25.228c0.187-4.287,3.697-7.648,7.992-7.648c8.964,0,19.763-8.725,23.167-12.087C47.854,8.793,49.863,7.961,52,7.961l0.264,0.005c2.208,0.072,4.307,1.068,5.76,2.73c0.085,0.096,10.534,11.681,22.786,11.681c4.295,0,7.806,3.361,7.992,7.651c0.051,1.191,0.397,11.993-3.154,25.179C80.693,73.601,70.47,87.393,56.084,95.093C54.927,95.712,53.622,96.039,52.31,96.039z" opacity=".35"/><path fill="#f2f2f2" d="M50.31,94.039c-1.288,0-2.571-0.315-3.712-0.913C31.94,85.438,21.514,71.651,16.442,53.253c-3.713-13.472-3.265-24.754-3.244-25.228c0.187-4.287,3.697-7.648,7.992-7.648c8.964,0,19.763-8.725,23.167-12.087C45.854,6.793,47.863,5.961,50,5.961l0.264,0.005c2.208,0.072,4.307,1.068,5.76,2.73c0.085,0.096,10.534,11.681,22.786,11.681c4.295,0,7.806,3.361,7.992,7.651c0.051,1.191,0.397,11.993-3.154,25.179C78.693,71.601,68.47,85.393,54.084,93.093C52.927,93.712,51.622,94.039,50.31,94.039z"/><path fill="#96c362" d="M50.31,87.539c-0.239,0-0.479-0.058-0.697-0.172c-31.402-16.47-29.94-58.633-29.921-59.057c0.035-0.802,0.695-1.435,1.499-1.435c13.607,0,27.609-13.836,27.749-13.976c0.281-0.281,0.664-0.438,1.061-0.438c0.017,0,0.033,0,0.049,0c0.415,0.014,0.806,0.199,1.079,0.511c0.122,0.139,12.369,13.903,27.682,13.903c0.803,0,1.464,0.633,1.499,1.435c0.019,0.424,1.487,42.579-29.291,59.051C50.796,87.479,50.553,87.539,50.31,87.539z"/><path fill="#40396e" d="M59,45h-3c0-3.309-2.691-6-6-6s-6,2.691-6,6h-3c0-4.963,4.037-9,9-9S59,40.037,59,45z"/><path fill="#40396e" d="M50,13.961c0,0,12.607,14.416,28.81,14.416c0,0,1.802,41.445-28.5,57.663C19.388,69.822,21.19,28.376,21.19,28.376C35.598,28.376,50,13.961,50,13.961 M50,10.961c-0.794,0-1.557,0.315-2.121,0.878c-0.136,0.135-13.716,13.538-26.689,13.538c-1.606,0-2.927,1.265-2.997,2.87c-0.019,0.442-0.431,10.979,3.069,23.677c4.694,17.03,14.257,29.746,27.654,36.773c0.436,0.229,0.915,0.343,1.393,0.343c0.487,0,0.973-0.118,1.416-0.355c13.138-7.031,22.507-19.749,27.094-36.778c3.418-12.69,3.006-23.218,2.987-23.66c-0.07-1.605-1.391-2.87-2.997-2.87c-14.672,0-26.434-13.257-26.552-13.391c-0.547-0.625-1.328-0.996-2.159-1.023C50.066,10.961,50.033,10.961,50,10.961L50,10.961z"/><path fill="#ffc571" d="M60,61H40c-1.105,0-2-0.895-2-2V47c0-1.105,0.895-2,2-2h20c1.105,0,2,0.895,2,2v12C62,60.105,61.105,61,60,61z"/><circle cx="50" cy="52" r="1.997" fill="#40396e"/><rect width="1.997" height="3.661" x="49.001" y="53.16" fill="#40396e"/></svg>
