<svg xmlns="http://www.w3.org/2000/svg" viewBox="0 0 100 100"><path fill="#70bfff" d="M80.5,15.5h-61c-2.209,0-4,1.791-4,4v48c0,2.209,1.791,4,4,4h12.129v19l19-19H80.5 c2.209,0,4-1.791,4-4v-48C84.5,17.291,82.709,15.5,80.5,15.5z"/><path fill="none" stroke="#40396e" stroke-linecap="round" stroke-linejoin="round" stroke-miterlimit="10" stroke-width="3" d="M80.5,15.5h-61c-2.209,0-4,1.791-4,4v48c0,2.209,1.791,4,4,4h12.129v19l19-19H80.5c2.209,0,4-1.791,4-4v-48 C84.5,17.291,82.709,15.5,80.5,15.5z"/><g><path d="M33.629,99c-0.86,0-1.699-0.167-2.493-0.498 c-2.431-1.005-4.006-3.363-4.006-6.002V80H21.5C15.71,80,11,75.29,11,69.5v-48C11,15.71,15.71,11,21.5,11h61 C88.29,11,93,15.71,93,21.5v48C93,75.29,88.29,80,82.5,80H55.322L38.226,97.096C37.001,98.323,35.367,99,33.629,99z" opacity=".35"/><path fill="#f2f2f2" d="M31.629,97c-0.86,0-1.699-0.167-2.493-0.498c-2.431-1.005-4.006-3.363-4.006-6.002V78H19.5 C13.71,78,9,73.29,9,67.5v-48C9,13.71,13.71,9,19.5,9h61C86.29,9,91,13.71,91,19.5v48C91,73.29,86.29,78,80.5,78H53.322 L36.226,95.096C35.001,96.323,33.367,97,31.629,97z"/><path fill="#f2f2f2" d="M50.025,32.34c-1.362,0-2.408-0.316-3.139-0.948c-0.729-0.632-1.094-1.533-1.094-2.7 c0-1.199,0.365-2.116,1.094-2.748c0.731-0.632,1.776-0.949,3.139-0.949c2.789,0,4.183,1.234,4.183,3.697 C54.208,31.124,52.814,32.34,50.025,32.34z M50.025,60.994c-1.201,0-2.117-0.349-2.749-1.046 c-0.633-0.697-0.948-1.678-0.948-2.943V40.368c0-2.692,1.232-4.038,3.697-4.038c1.167,0,2.067,0.349,2.7,1.046 c0.632,0.699,0.948,1.696,0.948,2.993v16.638c0,1.265-0.31,2.246-0.924,2.943C52.132,60.646,51.224,60.994,50.025,60.994z"/><path fill="#70bfff" d="M80.5,15.5h-61c-2.209,0-4,1.791-4,4v48c0,2.209,1.791,4,4,4h12.129v19l19-19H80.5 c2.209,0,4-1.791,4-4v-48C84.5,17.291,82.709,15.5,80.5,15.5z"/><path fill="#40396e" d="M31.629,92c-0.193,0-0.388-0.037-0.574-0.114c-0.561-0.232-0.926-0.779-0.926-1.386V73H19.5 c-3.033,0-5.5-2.467-5.5-5.5v-48c0-3.033,2.467-5.5,5.5-5.5h61c3.033,0,5.5,2.467,5.5,5.5v48c0,3.033-2.467,5.5-5.5,5.5H51.25 L32.69,91.561C32.403,91.848,32.02,92,31.629,92z M19.5,17c-1.378,0-2.5,1.122-2.5,2.5v48c0,1.378,1.122,2.5,2.5,2.5h12.129 c0.829,0,1.5,0.671,1.5,1.5v15.379l16.439-16.439C49.85,70.158,50.231,70,50.629,70H80.5c1.378,0,2.5-1.122,2.5-2.5v-48 c0-1.378-1.122-2.5-2.5-2.5H19.5z"/></g></svg>
