<svg xmlns="http://www.w3.org/2000/svg" viewBox="0 0 100 100"><path d="M16.727,70c-3.079,0-5.76-1.96-6.672-4.877 C8.423,59.9,7.785,54.46,8.157,48.953c1.5-22.194,20.114-40.171,42.376-40.927C51.039,8.009,51.544,8,52.046,8 c5.552,0,10.922,1.014,16.016,3.02l2.083-3.125C71.35,6.083,73.372,5,75.55,5c0.334,0,0.669,0.026,0.996,0.077 c2.448,0.366,4.514,2.156,5.234,4.556l6,20c0.578,1.922,0.246,3.969-0.913,5.613c-1.162,1.646-2.979,2.646-4.988,2.747 l-20.125,1.006L61.554,39c-2.333,0-4.499-1.26-5.651-3.288c-1.221-2.153-1.126-4.763,0.243-6.817l0.321-0.482 C55.017,28.138,53.54,28,52.044,28c-0.286,0-0.572,0.005-0.86,0.016c-11.289,0.404-20.862,8.696-22.762,19.717 c-0.75,4.35-0.335,8.772,1.199,12.789c0.819,2.144,0.531,4.555-0.772,6.447C27.542,68.867,25.386,70,23.082,70H16.727z" opacity=".35"/><path d="M28.504,99.001c-0.33,0-0.664-0.026-0.991-0.077 c-2.453-0.367-4.519-2.157-5.239-4.557l-6-20c-0.578-1.922-0.246-3.969,0.913-5.613c1.162-1.646,2.979-2.646,4.989-2.746 L42.3,65.002L42.5,65c2.333,0,4.499,1.26,5.651,3.288c1.221,2.153,1.126,4.763-0.243,6.817l-0.321,0.482 C49.037,75.862,50.514,76,52.01,76c0.283,0,0.567-0.005,0.853-0.015c11.296-0.404,20.87-8.697,22.769-19.718 c0.749-4.35,0.334-8.772-1.2-12.788c-0.819-2.145-0.531-4.555,0.772-6.447C76.511,35.133,78.667,34,80.972,34h6.355 c3.08,0,5.762,1.961,6.673,4.88c1.63,5.218,2.269,10.658,1.896,16.167c-1.5,22.194-20.113,40.171-42.375,40.927 C53.014,95.991,52.509,96,52.008,96c-5.553,0-10.922-1.014-16.016-3.02l-2.083,3.125C32.704,97.917,30.682,99.001,28.504,99.001z" opacity=".35"/><path fill="#f2f2f2" d="M92,36.88c-0.889-2.849-3.469-4.772-6.456-4.863c0.583-1.378,0.676-2.917,0.234-4.385l-6-20 c-0.72-2.4-2.786-4.19-5.234-4.556C74.219,3.025,73.884,3,73.55,3c-2.178,0-4.2,1.084-5.404,2.895L66.062,9.02 C60.968,7.014,55.598,6,50.046,6c-0.501,0-1.007,0.009-1.513,0.026C26.271,6.781,7.657,24.758,6.157,46.953 C5.785,52.46,6.423,57.9,8.054,63.123c0.891,2.847,3.469,4.769,6.455,4.86c-0.582,1.378-0.676,2.917-0.234,4.385l6,20 c0.72,2.4,2.786,4.19,5.239,4.557c0.328,0.051,0.661,0.077,0.991,0.077c2.178,0,4.199-1.084,5.404-2.896l2.083-3.125 C39.086,92.986,44.455,94,50.008,94c0.501,0,1.006-0.009,1.514-0.026c22.262-0.755,40.875-18.732,42.375-40.927 C94.269,47.538,93.631,42.099,92,36.88z"/><path fill="#96c362" d="M14.711,61l-0.208-0.724c-1.199-4.166-1.657-8.49-1.362-12.852 c1.261-18.656,16.911-33.768,35.629-34.403C49.197,13.007,49.623,13,50.046,13c5.938,0,11.627,1.379,16.908,4.1l0.794,0.409 c0.144,0.074,0.297,0.112,0.457,0.112c0.335,0,0.647-0.167,0.833-0.446l4.342-6.513l5.511,18.371l-18.371,0.918l4.057-6.085 c0.164-0.247,0.211-0.54,0.131-0.825c-0.08-0.285-0.271-0.511-0.54-0.636l-1.054-0.493C58.979,19.98,54.582,19,50.044,19 c-0.297,0-0.594,0.004-0.893,0.013c-15.856,0.456-29.049,13.2-30.036,29.014c-0.248,3.977,0.255,7.899,1.494,11.66L21.042,61 H14.711z"/><path fill="#96c362" d="M21.162,70.968l18.371-0.919l-4.057,6.086c-0.164,0.247-0.211,0.539-0.131,0.824 c0.08,0.285,0.271,0.511,0.54,0.636l1.054,0.493C41.075,80.02,45.472,81,50.01,81c0.297,0,0.594-0.004,0.893-0.013 c15.856-0.455,29.049-13.2,30.036-29.014c0.248-3.978-0.255-7.901-1.494-11.661L79.011,39h6.332l0.208,0.724 c1.199,4.165,1.657,8.489,1.362,12.852c-1.261,18.656-16.911,33.768-35.629,34.403C50.857,86.993,50.431,87,50.008,87 c-5.938,0-11.626-1.379-16.908-4.1l-0.794-0.409c-0.144-0.074-0.297-0.111-0.457-0.111c-0.336,0-0.647,0.167-0.833,0.446 l-4.342,6.513L21.162,70.968z"/><path fill="#40396e" d="M80.99,29.069l-6-20c-0.167-0.557-0.641-0.966-1.215-1.052C73.7,8.005,73.625,7.999,73.55,7.999 c-0.496,0-0.965,0.249-1.244,0.669l-4.436,6.654C62.525,12.569,56.472,11,50.046,11c-0.446,0-0.895,0.008-1.344,0.023 c-19.819,0.673-36.22,16.482-37.556,36.267c-0.339,5.021,0.279,9.853,1.681,14.34c0.257,0.823,1.038,1.37,1.9,1.37h6.355 c1.394,0,2.367-1.392,1.869-2.694c-1.789-4.684-2.4-9.945-1.456-15.422c2.306-13.38,13.945-23.38,27.513-23.865 C49.355,21.006,49.7,21,50.044,21c4.368,0,8.506,0.986,12.224,2.724l-3.962,5.944c-0.314,0.472-0.336,1.08-0.057,1.573 C58.517,31.711,59.016,32,59.554,32c0.024,0,0.05,0,0.075-0.002l20-1c0.46-0.023,0.885-0.256,1.15-0.633 C81.045,29.988,81.123,29.511,80.99,29.069z"/><path fill="#40396e" d="M85.327,37h-6.355c-1.394,0-2.367,1.392-1.869,2.694c1.789,4.684,2.4,9.944,1.456,15.422 c-2.305,13.38-13.945,23.38-27.513,23.866C50.699,78.994,50.354,79,50.01,79c-4.368,0-8.506-0.986-12.224-2.724l3.962-5.944 c0.314-0.472,0.336-1.08,0.057-1.573C41.537,68.289,41.038,68,40.5,68c-0.024,0-0.05,0-0.075,0.002l-20,1 c-0.46,0.023-0.885,0.256-1.15,0.633c-0.266,0.377-0.344,0.854-0.211,1.296l6,20c0.167,0.557,0.641,0.966,1.215,1.052 c0.076,0.012,0.151,0.017,0.226,0.017c0.496,0,0.965-0.249,1.244-0.669l4.436-6.654C37.529,87.431,43.582,89,50.008,89 c0.446,0,0.895-0.008,1.344-0.023c19.819-0.673,36.22-16.482,37.556-36.267c0.339-5.021-0.279-9.853-1.681-14.34 C86.97,37.547,86.189,37,85.327,37z"/></svg>
