<svg xmlns="http://www.w3.org/2000/svg" viewBox="0 0 64 64"><linearGradient id="Lpjqw51Ma9ESmd4nNcCEOa" x1="14.812" x2="14.812" y1="46.239" y2="52.369" gradientUnits="userSpaceOnUse" spreadMethod="reflect"><stop offset="0" stop-color="#6dc7ff"/><stop offset="1" stop-color="#e6abff"/></linearGradient><path fill="url(#Lpjqw51Ma9ESmd4nNcCEOa)" d="M14.812,52.013l-2.834-2.834l2.834-2.836l2.834,2.836L14.812,52.013z"/><linearGradient id="Lpjqw51Ma9ESmd4nNcCEOb" x1="51.736" x2="51.736" y1="8.114" y2="17.542" gradientUnits="userSpaceOnUse" spreadMethod="reflect"><stop offset="0" stop-color="#6dc7ff"/><stop offset="1" stop-color="#e6abff"/></linearGradient><path fill="url(#Lpjqw51Ma9ESmd4nNcCEOb)" d="M54.576,17.929l-8.515-8.516l2.834-2.834l8.515,8.515L54.576,17.929z"/><linearGradient id="Lpjqw51Ma9ESmd4nNcCEOc" x1="32" x2="32" y1="5.114" y2="61.161" gradientUnits="userSpaceOnUse" spreadMethod="reflect"><stop offset="0" stop-color="#1a6dff"/><stop offset="1" stop-color="#c822ff"/></linearGradient><path fill="url(#Lpjqw51Ma9ESmd4nNcCEOc)" d="M57.413,13.677l-7.101-7.101c-0.756-0.756-2.078-0.756-2.834,0l-1.42,1.42 c-0.781,0.781-0.781,2.054,0,2.835l1.423,1.423l-4.267,4.267l-4.264-4.264c-0.756-0.756-2.078-0.756-2.834,0l-1.42,1.42 c-0.781,0.781-0.781,2.054,0,2.835l1.423,1.423L12.685,41.371c-1.173,1.173-1.173,3.082,0,4.255l0.713,0.713l-1.423,1.423 c-0.781,0.781-0.781,2.054,0,2.835l0.003,0.003l-5.684,5.684c-0.391,0.391-0.391,1.023,0,1.414c0.195,0.195,0.451,0.293,0.707,0.293 s0.512-0.098,0.707-0.293l5.684-5.684l0.003,0.003c0.391,0.391,0.903,0.586,1.417,0.586c0.513,0,1.025-0.195,1.416-0.585 l1.424-1.424l0.713,0.713c0.586,0.587,1.356,0.88,2.127,0.88s1.541-0.293,2.127-0.88L46.055,27.87l1.423,1.423 c0.391,0.391,0.903,0.586,1.417,0.586s1.026-0.195,1.417-0.586l1.42-1.42c0.379-0.379,0.587-0.882,0.587-1.417 c0-0.536-0.208-1.039-0.587-1.418l-4.264-4.264l4.267-4.267l1.424,1.424c0.391,0.391,0.903,0.586,1.417,0.586 s1.026-0.195,1.417-0.586l1.42-1.42C58.194,15.731,58.194,14.459,57.413,13.677z M16.237,49.179l-1.423,1.423l-1.426-1.427 l1.423-1.423L16.237,49.179z M44.641,26.457L21.205,49.892c-0.393,0.393-1.033,0.393-1.426,0l-5.681-5.681 c-0.394-0.394-0.394-1.033,0-1.427l2.133-2.133l3.554,3.554l1.414-1.414l-3.554-3.554l1.427-1.427l2.133,2.134l1.414-1.414 l-2.133-2.134l1.426-1.426l2.134,2.133l1.414-1.414l-2.134-2.133l1.427-1.427l3.553,3.554l1.414-1.414l-3.553-3.554l1.426-1.426 l2.134,2.133l1.414-1.414l-2.134-2.133l1.427-1.427l2.133,2.134l1.414-1.414l-2.133-2.134l1.426-1.426l3.554,3.554l1.414-1.414 l-3.554-3.554l2.847-2.847L44.641,26.457z M48.893,27.88L36.111,15.092l1.426-1.42l12.781,12.781L48.893,27.88z M46.055,19.361 l-1.426-1.426l4.267-4.267l1.426,1.426L46.055,19.361z M54.573,16.518l-7.101-7.107l1.426-1.42l7.101,7.101L54.573,16.518z"/></svg>
