<svg xmlns="http://www.w3.org/2000/svg" viewBox="0 0 64 64"><linearGradient id="Hi3jcfg08I7ZMl3EortrUa" x1="21.001" x2="21.001" y1="29.625" y2="52.251" gradientUnits="userSpaceOnUse" spreadMethod="reflect"><stop offset="0" stop-color="#6dc7ff"/><stop offset="1" stop-color="#e6abff"/></linearGradient><path fill="url(#Hi3jcfg08I7ZMl3EortrUa)" d="M22,38.08V30h-2v8.08c-3.386,0.488-5.999,3.401-5.999,6.92c0,3.859,3.141,7,7,7s7-3.141,7-7 C28.001,41.48,25.387,38.567,22,38.08z M21.001,50c-2.757,0-5-2.243-5-5s2.243-5,5-5s5,2.243,5,5S23.758,50,21.001,50z"/><linearGradient id="Hi3jcfg08I7ZMl3EortrUb" x1="21" x2="21" y1="5.75" y2="58.512" gradientUnits="userSpaceOnUse" spreadMethod="reflect"><stop offset="0" stop-color="#1a6dff"/><stop offset="1" stop-color="#c822ff"/></linearGradient><path fill="url(#Hi3jcfg08I7ZMl3EortrUb)" d="M27,33.486V9c0-1.654-1.346-3-2.999-3h-6C16.347,6,15,7.346,15,9v24.49 c-4.294,2.333-7.083,6.976-6.998,11.747c0.121,6.759,5.712,12.479,12.462,12.752C20.645,57.997,20.826,58,21.007,58 c3.375,0,6.553-1.274,8.997-3.623C32.581,51.902,34,48.572,34,45C34,40.222,31.272,35.771,27,33.486z M28.618,52.935 c-2.178,2.094-5.021,3.176-8.074,3.057c-5.71-0.23-10.439-5.07-10.542-10.789c-0.075-4.213,2.51-8.312,6.432-10.199L17,34.729V26h5 v-2h-5v-2h3v-2h-3v-2h3v-2h-3v-2h5v-2h-5V9c0-0.552,0.449-1,1.001-1h6C24.552,8,25,8.448,25,9v25.734l0.571,0.271 C29.477,36.857,32,40.781,32,45C32,48.022,30.799,50.841,28.618,52.935z"/><path fill="url(#Hi3jcfg08I7ZMl3EortrUb)" d="M21 42A3 3 0 1 0 21 48A3 3 0 1 0 21 42Z"/><linearGradient id="Hi3jcfg08I7ZMl3EortrUd" x1="47" x2="47" y1="5.75" y2="58.512" gradientUnits="userSpaceOnUse" spreadMethod="reflect"><stop offset="0" stop-color="#1a6dff"/><stop offset="1" stop-color="#c822ff"/></linearGradient><path fill="url(#Hi3jcfg08I7ZMl3EortrUd)" d="M56,12c0-1.105-0.895-2-2-2H40c-1.105,0-2,0.895-2,2v2c0,1.105,0.895,2,2,2h14 c1.105,0,2-0.895,2-2V12z M54,14H40v-2h14V14z"/><linearGradient id="Hi3jcfg08I7ZMl3EortrUe" x1="50" x2="50" y1="5.75" y2="58.512" gradientUnits="userSpaceOnUse" spreadMethod="reflect"><stop offset="0" stop-color="#1a6dff"/><stop offset="1" stop-color="#c822ff"/></linearGradient><path fill="url(#Hi3jcfg08I7ZMl3EortrUe)" d="M56,22c0-1.105-0.895-2-2-2h-8c-1.105,0-2,0.895-2,2v2c0,1.105,0.895,2,2,2h8 c1.105,0,2-0.895,2-2V22z M54,24h-8v-2h8V24z"/><path fill="url(#Hi3jcfg08I7ZMl3EortrUe)" d="M56,32c0-1.105-0.895-2-2-2h-8c-1.105,0-2,0.895-2,2v2c0,1.105,0.895,2,2,2h8 c1.105,0,2-0.895,2-2V32z M54,34h-8v-2h8V34z"/><linearGradient id="Hi3jcfg08I7ZMl3EortrUg" x1="47" x2="47" y1="5.75" y2="58.512" gradientUnits="userSpaceOnUse" spreadMethod="reflect"><stop offset="0" stop-color="#1a6dff"/><stop offset="1" stop-color="#c822ff"/></linearGradient><path fill="url(#Hi3jcfg08I7ZMl3EortrUg)" d="M56,42c0-1.105-0.895-2-2-2H40c-1.105,0-2,0.895-2,2v2c0,1.105,0.895,2,2,2h14 c1.105,0,2-0.895,2-2V42z M54,44H40v-2h14V44z"/></svg>
