<svg xmlns="http://www.w3.org/2000/svg" baseProfile="basic" viewBox="0 0 100 100"><path d="M78.5,100c-4.399,0-8.645-1.406-12.152-3.995H17.466c-3.584,0-6.5-2.916-6.5-6.5c0-8.398,5.299-15.928,13.196-18.767 l10.683-4.208c-2.266-3.198-3.486-6.387-4.14-9.001C29.162,56.904,31.149,54.315,30,53c-3.807-4.359-8.643-10.872-4.647-15.542 c0.389-0.456,0.827-0.87,1.302-1.237c-1.416-7.572-0.619-14.061,2.382-19.336C33.183,9.6,40.248,7.042,43.093,6.282 c1.119-0.299,5.135-1.276,9.845-1.276c7.938,0,12.125,2.782,14.332,5.704c4.74,1.819,8.327,4.931,10.442,9.083 c2.91,5.713,2.483,12.158,1.645,16.479c0.452,0.354,0.868,0.75,1.239,1.185c3.996,4.67,2.539,12.781-1.267,17.14 c-1.155,1.322-2.554,2.315-4.106,2.939c-0.145,0.578-0.317,1.184-0.522,1.812C75.939,59.118,77.209,59,78.5,59 C89.804,59,99,68.196,99,79.5c0,4.945-1.767,9.675-4.988,13.397c-0.544,0.891-1.293,1.636-2.188,2.174 C88.111,98.255,83.407,100,78.5,100z" opacity=".35"/><path fill="#f2f2f2" d="M76.5,98c-4.399,0-8.645-1.406-12.152-3.995H15.466c-3.584,0-6.5-2.916-6.5-6.5 c0-8.398,5.299-15.928,13.196-18.767l10.683-4.208c-2.266-3.198-3.486-6.387-4.14-9.001c-1.544-0.625-2.935-1.615-4.084-2.93 c-3.807-4.359-5.264-12.47-1.268-17.14c0.389-0.456,0.827-0.87,1.302-1.237c-1.416-7.572-0.619-14.061,2.382-19.336 C31.183,7.6,38.248,5.042,41.093,4.282c1.119-0.299,5.135-1.276,9.845-1.276c7.938,0,12.125,2.782,14.332,5.704 c4.74,1.819,8.327,4.931,10.442,9.083c2.91,5.713,2.483,12.158,1.645,16.479c0.452,0.354,0.868,0.75,1.239,1.185 c3.996,4.67,2.539,12.781-1.267,17.14c-1.155,1.322-2.554,2.315-4.106,2.939c-0.145,0.578-0.317,1.184-0.522,1.812 C73.939,57.118,75.209,57,76.5,57C87.804,57,97,66.196,97,77.5c0,4.945-1.767,9.675-4.988,13.397 c-0.544,0.891-1.293,1.636-2.188,2.174C86.111,96.255,81.407,98,76.5,98z"/><path fill="#ffc7a3" d="M77.511,74.833l-16.573-5.907l0.505-6.725c3.73-3.02,4.386-7.224,6.141-12.574 c1.469,1.375,3.98,0.863,5.875-1.306c2.061-2.359,2.609-5.779,1.225-7.638c-1.106-1.485-3.112-1.521-4.924-0.273 c0.504-3.247,0.206-6.343,0.206-8.958c0-12.112-8.216-19.43-19-19.43s-19,7.318-19,19.43c0,2.662-0.21,5.823,0.421,9.134 c-0.421-1.573-2.99-1.456-4.146,0.096c-1.385,1.859-0.836,5.278,1.225,7.638c2.061,2.359,3.834,2.765,5.218,0.906 c0.006-0.007,0.01-0.016,0.015-0.024c1.266,5.801,1.93,9.71,5.28,12.846l1.323,6.725l-16.882,6.059 c-5.367,1.901-8.955,6.977-8.955,12.672v0h71v0C86.466,81.811,82.879,76.734,77.511,74.833z"/><path fill="#40396e" d="M51.158,65.014c4.833,0,9.284-2.582,9.284-2.582s-2.223,6.582-9.284,6.582 c-7.005,0-9.732-6.654-9.732-6.654S46.325,65.014,51.158,65.014z" opacity=".35"/><path fill="#70bfff" d="M77.511,74.833l-16.648-5.46c-0.335,2.46-5.197,5.912-10.02,5.891 c-4.741-0.021-9.444-3.472-9.774-5.891l-16.648,5.46c-5.367,1.901-8.955,6.977-8.955,12.672v0h71v0 C86.466,81.811,82.879,76.734,77.511,74.833z"/><path fill="#40396e" d="M41.046,23.005c5.528,0,14.313,0,19.841,0c2.777,0,4.856,2.207,5.174,4.966 c1.108,9.611,1.993,12.034,1.993,12.034h5.832c-0.07-0.114-0.145-0.224-0.229-0.321c-0.6-0.701-2.238-1.52-4.112-0.096 c0.631-3.311,0.921-5.472,0.921-8.134c0-12.112-8.716-19.93-19.5-19.93s-19.5,7.818-19.5,19.93c0,2.662,0.29,4.823,0.921,8.134 c-1.874-1.424-3.495-0.605-4.095,0.096c-0.084,0.098-0.158,0.207-0.229,0.321h5.813c0,0,0.907-2.242,1.995-12.034 C36.178,25.211,38.269,23.005,41.046,23.005z"/><path fill="#40396e" d="M30.503,37.258c0,0,2.162-2.723,4.272-3.25c0,0,25.818-1.581,27.885-14.733 C64.885,5.117,47.347,7.785,42.385,9.112C38.036,10.275,24.461,15.837,30.503,37.258z"/><path fill="#40396e" d="M60.536,21.634c0,0-0.365,3.762,6.643,12.37l4.187,3.349c0,0,7.44-19.747-9.633-24.561 L60.536,21.634z"/><circle cx="76.494" cy="77.501" r="12.5" fill="#96c362"/><g><path fill="#40396e" d="M76.5,93c-3.861,0-7.522-1.414-10.378-3.995H15.466c-0.829,0-1.5-0.671-1.5-1.5 c0-6.316,4-11.977,9.954-14.085l15.046-5.927v-3.37c-4.559-4.815-5.675-10.079-5.933-12.825c-1.352,0.061-3.15-0.277-4.646-1.989 c-2.343-2.683-3.373-8.101-1.234-10.6c0.64-0.749,1.854-1.483,3.374-1.456c-0.355-2.057-0.56-3.766-0.56-5.8 c0-12.417,8.832-21.43,21-21.43s21,9.013,21,21.43c0,2.03-0.205,3.739-0.56,5.796c1.493-0.018,2.746,0.707,3.39,1.459 c2.138,2.499,1.108,7.917-1.234,10.6c-1.499,1.715-3.313,2.05-4.665,1.989c-0.26,2.75-1.378,8.016-5.932,12.826v3.37l1.293,0.509 C67.189,64.223,71.68,62,76.5,62C85.047,62,92,68.953,92,77.5c0,3.932-1.461,7.65-4.126,10.525 c-0.153,0.414-0.483,0.742-0.899,0.892C84.105,91.554,80.405,93,76.5,93z M17.061,86.005h49.655c0.392,0,0.769,0.153,1.049,0.428 C70.118,88.733,73.22,90,76.5,90s6.382-1.267,8.735-3.567c0.03-0.029,0.061-0.057,0.093-0.084 c0.021-0.023,0.042-0.046,0.064-0.069C87.719,83.923,89,80.806,89,77.5C89,70.607,83.393,65,76.5,65 c-4.218,0-8.124,2.112-10.449,5.65c-0.389,0.593-1.141,0.833-1.803,0.572l-3.332-1.312c-0.573-0.226-0.95-0.779-0.95-1.396v-5 c0-0.397,0.158-0.779,0.438-1.06c5.69-5.698,5.593-12.145,5.563-12.861c-0.027-0.648,0.365-1.257,0.972-1.484 c0.35-0.132,0.737-0.127,1.085,0.013c0.188,0.071,1.985,0.692,3.277-0.787c1.77-2.026,2.054-5.696,1.215-6.676 c-0.009-0.01-0.861-0.935-2.144,0.041c-0.495,0.376-1.17,0.409-1.697,0.081c-0.528-0.327-0.8-0.946-0.684-1.556 c0.622-3.263,0.974-5.233,0.974-7.771c0-10.679-7.57-18.43-18-18.43s-18,7.751-18,18.43c0,2.542,0.352,4.51,0.974,7.771 c0.116,0.61-0.156,1.229-0.684,1.556c-0.527,0.327-1.203,0.295-1.697-0.081c-1.296-0.984-2.119-0.05-2.127-0.041 c-0.839,0.98-0.555,4.65,1.215,6.676c1.291,1.478,3.072,0.859,3.272,0.783c0.331-0.125,0.711-0.136,1.045-0.019 c0.623,0.219,1.029,0.834,1.001,1.494c-0.03,0.716-0.134,7.155,5.563,12.861c0.281,0.281,0.438,0.663,0.438,1.06v5 c0,0.616-0.377,1.17-0.95,1.396l-16.045,6.319C20.645,77.762,17.624,81.578,17.061,86.005z"/></g><g><path fill="#f2f2f2" d="M73.339,83.928c-0.366,0-0.731-0.14-1.01-0.418l-4.777-4.769c-0.559-0.558-0.56-1.464-0.002-2.023 c0.558-0.559,1.464-0.56,2.023-0.002l3.766,3.759l8.93-8.931c0.559-0.559,1.464-0.559,2.023,0c0.559,0.558,0.559,1.465,0,2.023 l-9.942,9.941C74.071,83.787,73.705,83.928,73.339,83.928z"/></g></svg>
