<svg xmlns="http://www.w3.org/2000/svg" viewBox="0 0 64 64"><linearGradient id="Fg3V7sDQMrZC9cOP7bBuBa" x1="32" x2="32" y1="8.5" y2="55.734" gradientUnits="userSpaceOnUse" spreadMethod="reflect"><stop offset="0" stop-color="#1a6dff"/><stop offset="1" stop-color="#c822ff"/></linearGradient><path fill="url(#Fg3V7sDQMrZC9cOP7bBuBa)" d="M56,33v-6v-1v-7c0-2.206-1.794-4-4-4h-3v-3c0-1.654-1.346-3-3-3H16c-1.654,0-3,1.346-3,3v2v1 h-3c-1.092,0-2.149,0.454-2.901,1.246C6.386,16.997,6.016,17.97,6.015,19H6v31c0,2.757,2.243,5,5,5h40c2.757,0,5-2.243,5-5v-7 c1.103,0,2-0.897,2-2v-6C58,33.897,57.103,33,56,33z M52,17c1.103,0,2,0.897,2,2v3.026C53.162,21.391,52.13,21,51,21h-2v-4H52z M35.899,21c-0.465-2.279-2.484-4-4.899-4s-4.434,1.721-4.899,4H15v-1.08c3.059-0.441,5.48-2.92,5.92-5.92h20.16 c0.441,3,2.861,5.479,5.92,5.92V21H35.899z M33.816,21h-5.631c0.414-1.161,1.514-2,2.816-2S33.402,19.839,33.816,21z M15,17.899 v-3.881C15.188,13.994,15.503,14,15.728,14h3.171C18.5,16,16.956,17.5,15,17.899z M47,17v0.899C45.044,17.5,43.5,16,43.101,14H46 c0.552,0,1,0.448,1,1V17z M16,11h30c0.552,0,1,0.448,1,1v0.184C46.686,12.072,46.352,12,46,12H16h-0.257 c-0.247,0-0.497,0.006-0.743,0.022V12C15,11.448,15.448,11,16,11z M8.55,17.623C8.932,17.222,9.446,17,10,17h3v4h-2.83 c-1.141,0-2.112-0.849-2.167-1.891C7.974,18.553,8.168,18.025,8.55,17.623z M54,50c0,1.654-1.346,3-3,3H11c-1.654,0-3-1.346-3-3 V22.41C8.634,22.78,9.375,23,10.17,23H51c1.654,0,3,1.346,3,3v1v6h-2v-5c0-1.654-1.346-3-3-3H13c-1.654,0-3,1.346-3,3v20 c0,1.654,1.346,3,3,3h36c1.654,0,3-1.346,3-3v-5h2V50z M48,38c0,1.654-1.346,3-3,3s-3-1.346-3-3s1.346-3,3-3S48,36.346,48,38z M45,33c-2.757,0-5,2.243-5,5s2.243,5,5,5h5v5c0,0.552-0.448,1-1,1H13c-0.552,0-1-0.448-1-1V28c0-0.552,0.448-1,1-1h36 c0.552,0,1,0.448,1,1v5H45z M48.974,41C49.609,40.162,50,39.13,50,38s-0.391-2.162-1.026-3H56l0.002,6H48.974z"/><linearGradient id="Fg3V7sDQMrZC9cOP7bBuBb" x1="17.644" x2="17.644" y1="39.5" y2="47.86" gradientUnits="userSpaceOnUse" spreadMethod="reflect"><stop offset="0" stop-color="#6dc7ff"/><stop offset="1" stop-color="#e6abff"/></linearGradient><path fill="url(#Fg3V7sDQMrZC9cOP7bBuBb)" d="M20.782,47H15c-0.552,0-1-0.448-1-1v-5.782c0-0.449,0.543-0.675,0.861-0.357l6.277,6.277 C21.457,46.457,21.231,47,20.782,47z"/></svg>
